<?xml version="1.0" encoding="UTF-8"?>
<svg width="640px" height="640px" viewBox="0 0 640 640" version="1.1" xmlns="http://www.w3.org/2000/svg" xmlns:xlink="http://www.w3.org/1999/xlink">
    <!-- Generator: Sketch 41.2 (35397) - http://www.bohemiancoding.com/sketch -->
    <title>Buienradar</title>
    <desc>Created with Sketch.</desc>
    <defs></defs>
    <g id="Page-1" stroke="none" stroke-width="1" fill="none" fill-rule="evenodd">
        <g id="Buienradar">
            <g transform="translate(37.000000, 31.000000)" id="Layer_1">
                <g>
                    <g id="Group">
                        <g id="Shape">
                            <g opacity="0.763134058" transform="translate(0.000000, 35.248880)" fill="#FFAB40">
                                <path d="M159.473723,518.281796 C192.912342,533.320745 229.909957,541.72329 268.899546,541.72329 C417.368076,541.72329 537.73648,420.475106 537.73648,270.888405 C537.73648,222.399835 525.04096,176.935111 502.890199,137.571598 L159.473723,518.281796 Z"></path>
                                <path d="M405.070951,37.3565359 C365.125214,13.6474451 318.645799,0.0267596962 268.926105,0.0267596962 C120.457575,0.0267596962 0.0891703704,121.274943 0.0891703704,270.888405 C0.0891703704,304.846459 6.33069178,337.305971 17.671669,367.27683 L405.070951,37.3565359 Z"></path>
                            </g>
                            <path d="M112.06472,529.955384 L566.447479,0.00636037806 L31.8810901,449.783334 C16.078089,460.219616 5.56046148,478.175372 5.56046148,498.56626 C5.56046148,530.784934 31.4561354,556.848879 63.3808534,556.848879 C77.8824308,556.848879 91.1091443,551.44342 101.254937,542.532441 C105.424804,538.893122 109.063478,534.638331 112.06472,529.955384 Z" fill-opacity="0.264407835" fill="#F6A623"></path>
                        </g>
                    </g>
                </g>
            </g>
        </g>
    </g>
</svg>