<?xml version="1.0" encoding="UTF-8"?>
<svg width="640px" height="640px" viewBox="0 0 640 640" version="1.1" xmlns="http://www.w3.org/2000/svg" xmlns:xlink="http://www.w3.org/1999/xlink">
    <!-- Generator: Sketch 41.2 (35397) - http://www.bohemiancoding.com/sketch -->
    <title>Homey Devices</title>
    <desc>Created with Sketch.</desc>
    <defs>
        <path d="M0.5,0.78974359 C24.5,106.615385 204,135.24359 297.7,135.638462 C395,135.638462 557.8,107.997436 594,4.34358974 C594,8.78589744 593.5,13.2282051 593.5,17.7692308 C552.3,115.105128 394,143.733333 298.1,143.733333 C207.6,143.239744 38.5,114.710256 1.4,19.6448718 C0.5,13.3269231 0.5,7.5025641 0.5,0.78974359" id="path-1"></path>
    </defs>
    <g id="Page-1" stroke="none" stroke-width="1" fill="none" fill-rule="evenodd" opacity="0.896569293">
        <g id="Homey-Devices">
            <g id="icon" transform="translate(18.000000, 12.000000)">
                <g id="Layer_1">
                    <path d="M181.9,575.723077 C181.9,573.946154 181.9,572.169231 181.4,570.392308 C165.1,563.284615 149.7,555.189744 135.3,545.416667 C131.2,547.19359 128.1,549.464103 124.9,552.129487 C119,557.953846 114.9,566.44359 114.9,575.328205 C114.9,584.212821 118.5,592.702564 124.9,598.526923 C131.2,604.351282 139.4,608.398718 148.4,608.398718 C157.4,608.398718 166,604.844872 171.9,598.526923 C177.8,592.208974 181.9,585.101282 181.9,575.723077 L181.9,575.723077 Z M272.8,593.985897 C274.2,596.651282 276.4,599.316667 278.7,601.587179 C284.6,607.411538 293.2,611.458974 302.2,611.458974 C311.2,611.458974 319.8,607.905128 325.7,601.587179 C328,599.316667 329.8,596.651282 331.6,593.985897 C322.1,594.874359 312.1,595.367949 302.2,595.367949 C292.3,595.367949 282.3,594.874359 272.8,593.985897 Z M422.5,570.787179 C422,572.564103 422,574.341026 422,576.117949 C422,585.002564 425.6,593.492308 432,599.316667 C438.3,605.141026 446.5,609.188462 455.5,609.188462 C464.5,609.188462 473.1,605.634615 479,599.316667 C484.9,593.492308 489,585.002564 489,576.117949 C489,567.233333 485.4,558.74359 479,552.919231 C476.3,550.253846 472.7,547.588462 468.6,546.20641 C454.2,555.189744 438.8,563.679487 422.5,570.787179 Z M417.1,575.723077 L417.1,572.564103 C391.8,582.830769 364.6,589.938462 336.6,593.097436 C334.8,597.539744 332.1,601.587179 328.5,604.746154 C321.7,611.458974 312.2,615.901282 301.4,615.901282 C291,615.901282 281.5,611.853846 274.3,604.746154 C271.1,601.587179 268,597.638462 266.2,593.097436 C238.2,589.938462 211,582.830769 185.7,572.564103 L185.7,575.723077 C185.7,585.989744 181.6,595.367949 174.4,602.475641 C167.6,609.188462 158.1,613.630769 147.3,613.630769 C136.5,613.630769 127.4,609.583333 120.2,602.475641 C113.4,595.762821 108.9,586.384615 108.9,575.723077 C108.9,565.45641 113,556.078205 120.2,548.970513 C122.9,546.305128 126.1,544.034615 129.2,542.257692 C114.3,531.991026 100.3,520.342308 87.1,507.903846 C34.4,454.201282 0.5,380.162821 0.5,297.930769 C0.5,215.698718 34.4,141.166667 88.7,87.6615385 C143.4,33.6628205 218.5,0.0987179487 302.2,0.0987179487 C385.4,0.0987179487 461,33.5641026 515.2,87.1679487 C569.9,141.166667 603.4,215.303846 603.4,297.437179 C603.4,379.570513 569.5,454.201282 515.2,507.70641 C502.5,520.24359 488.5,531.79359 473.1,542.060256 C476.3,543.837179 479.4,546.107692 482.1,548.773077 C488.9,555.485897 493.4,564.864103 493.4,575.525641 C493.4,586.187179 489.3,595.170513 482.1,602.278205 C475.3,608.991026 465.8,613.433333 455,613.433333 C444.1,613.433333 435.1,609.385897 427.9,602.278205 C420.7,595.367949 417.1,586.384615 417.1,575.723077 Z M598.5,297.930769 C598.5,217.080769 565.5,143.832051 511.7,90.7217949 C458.3,37.6115385 384.1,5.03461538 302.3,5.03461538 C220.5,5.03461538 146.2,37.6115385 92.4,90.7217949 C38.6,143.832051 5.5,216.685897 5.5,297.930769 C5.5,379.175641 38.5,452.029487 92.3,505.139744 C124.4,536.828205 163.8,560.915385 206.7,575.229487 C236.6,585.496154 268.2,590.826923 301.2,590.826923 L303,590.826923 C381.3,590.826923 456.3,560.026923 512,505.139744 C565.5,452.029487 598.5,378.780769 598.5,297.930769 Z" id="Shape" fill="#FFAB40"></path>
                    <g id="Group" transform="translate(5.000000, 297.141026)">
                        <path d="M0.5,0.78974359 C24.5,106.615385 204,135.24359 297.7,135.638462 C395,135.638462 557.8,107.997436 594,4.34358974 C594,8.78589744 593.5,13.2282051 593.5,17.7692308 C552.3,115.105128 394,143.733333 298.1,143.733333 C207.6,143.239744 38.5,114.710256 1.4,19.6448718 C0.5,13.3269231 0.5,7.5025641 0.5,0.78974359" id="SVGID_1_" fill="#F6A623" opacity="0"></path>
                        <g transform="translate(0.000000, -0.000000)">
                            <g id="Clipped">
                                <mask id="mask-2" fill="white">
                                    <use xlink:href="#path-1"></use>
                                </mask>
                                <g id="SVGID_3_" opacity="0"></g>
                                <rect id="Rectangle-path" fill="#FFAB40" mask="url(#mask-2)" x="0.5" y="0.78974359" width="593.5" height="142.844872"></rect>
                            </g>
                            <path d="M0.5,0.78974359 C24.5,106.615385 204,135.24359 297.7,135.638462 C395,135.638462 557.8,107.997436 594,4.34358974 C594,8.78589744 593.5,13.2282051 593.5,17.7692308 C552.3,115.105128 394,143.733333 298.1,143.733333 C207.6,143.239744 38.5,114.710256 1.4,19.6448718 C0.5,13.3269231 0.5,7.5025641 0.5,0.78974359" id="SVGID_2_" stroke="#F6A623" stroke-width="11" opacity="0"></path>
                        </g>
                    </g>
                </g>
            </g>
        </g>
    </g>
</svg>