<?xml version="1.0" encoding="UTF-8"?>
<svg width="640px" height="640px" viewBox="0 0 640 640" version="1.1" xmlns="http://www.w3.org/2000/svg" xmlns:xlink="http://www.w3.org/1999/xlink">
    <!-- Generator: Sketch 41.2 (35397) - http://www.bohemiancoding.com/sketch -->
    <title>Homey Devices</title>
    <desc>Created with Sketch.</desc>
    <defs>
        <path d="M0.310430464,0.496153846 C15.2110927,66.9807692 126.655629,84.9663462 184.830298,85.2144231 C245.240066,85.2144231 346.316225,67.8490385 368.791391,2.72884615 C368.791391,5.51971154 368.48096,8.31057692 368.48096,11.1634615 C342.90149,72.3144231 244.619205,90.3 185.078642,90.3 C128.890728,89.9899038 23.9031457,72.0663462 0.869205298,12.3418269 C0.310430464,8.37259615 0.310430464,4.71346154 0.310430464,0.496153846" id="path-1"></path>
    </defs>
    <g id="Page-1" stroke="none" stroke-width="1" fill="none" fill-rule="evenodd">
        <g id="Homey-Devices">
            <rect id="Rectangle" fill="#EAEAEA" x="0" y="0" width="640" height="640"></rect>
            <g id="icon" opacity="0.896569293" transform="translate(133.000000, 80.000000)">
                <g id="Layer_1">
                    <path d="M112.934603,361.696154 C112.934603,360.579808 112.934603,359.463462 112.624172,358.347115 C102.504139,353.881731 92.9428808,348.796154 84.0024834,342.65625 C81.4569536,343.772596 79.5322848,345.199038 77.5455298,346.873558 C73.8824503,350.532692 71.3369205,355.866346 71.3369205,361.448077 C71.3369205,367.029808 73.5720199,372.363462 77.5455298,376.022596 C81.4569536,379.681731 86.5480132,382.224519 92.1357616,382.224519 C97.7235099,382.224519 103.062914,379.991827 106.725993,376.022596 C110.389073,372.053365 112.934603,367.587981 112.934603,361.696154 L112.934603,361.696154 Z M169.370861,373.169712 C170.240066,374.844231 171.60596,376.51875 173.03394,377.945192 C176.69702,381.604327 182.036424,384.147115 187.624172,384.147115 C193.211921,384.147115 198.551325,381.914423 202.214404,377.945192 C203.642384,376.51875 204.759934,374.844231 205.877483,373.169712 C199.979305,373.727885 193.770695,374.037981 187.624172,374.037981 C181.477649,374.037981 175.26904,373.727885 169.370861,373.169712 Z M262.313742,358.595192 C262.003311,359.711538 262.003311,360.827885 262.003311,361.944231 C262.003311,367.525962 264.238411,372.859615 268.211921,376.51875 C272.123344,380.177885 277.214404,382.720673 282.802152,382.720673 C288.389901,382.720673 293.729305,380.487981 297.392384,376.51875 C301.055464,372.859615 303.600993,367.525962 303.600993,361.944231 C303.600993,356.3625 301.365894,351.028846 297.392384,347.369712 C295.71606,345.695192 293.48096,344.020673 290.93543,343.152404 C281.995033,348.796154 272.433775,354.129808 262.313742,358.595192 Z M258.961093,361.696154 L258.961093,359.711538 C243.253311,366.161538 226.365894,370.626923 208.981788,372.611538 C207.864238,375.402404 206.187914,377.945192 203.952815,379.929808 C199.73096,384.147115 193.832781,386.937981 187.127483,386.937981 C180.67053,386.937981 174.772351,384.395192 170.302152,379.929808 C168.315397,377.945192 166.390728,375.464423 165.273179,372.611538 C147.889073,370.626923 131.001656,366.161538 115.293874,359.711538 L115.293874,361.696154 C115.293874,368.146154 112.748344,374.037981 108.278146,378.503365 C104.056291,382.720673 98.1581126,385.511538 91.4528146,385.511538 C84.7475166,385.511538 79.0976821,382.96875 74.6274834,378.503365 C70.4056291,374.286058 67.611755,368.394231 67.611755,361.696154 C67.611755,355.246154 70.1572848,349.354327 74.6274834,344.888942 C76.3038079,343.214423 78.2905629,341.787981 80.2152318,340.671635 C70.964404,334.221635 62.272351,326.903365 54.0769868,319.088942 C21.3576159,285.350481 0.310430464,238.836058 0.310430464,187.174038 C0.310430464,135.512019 21.3576159,88.6875 55.0703642,55.0730769 C89.031457,21.1485577 135.658113,0.0620192308 187.624172,0.0620192308 C239.279801,0.0620192308 286.216887,21.0865385 319.86755,54.7629808 C353.828642,88.6875 374.627483,135.263942 374.627483,186.863942 C374.627483,238.463942 353.580298,285.350481 319.86755,318.964904 C311.982616,326.841346 303.290563,334.097596 293.729305,340.547596 C295.71606,341.663942 297.640728,343.090385 299.317053,344.764904 C303.538907,348.982212 306.332781,354.874038 306.332781,361.572115 C306.332781,368.270192 303.787252,373.913942 299.317053,378.379327 C295.095199,382.596635 289.19702,385.3875 282.491722,385.3875 C275.724338,385.3875 270.136589,382.844712 265.666391,378.379327 C261.196192,374.037981 258.961093,368.394231 258.961093,361.696154 Z M371.585265,187.174038 C371.585265,136.380288 351.096854,90.3620192 317.694536,56.9956731 C284.540563,23.6293269 238.472682,3.16298077 187.686258,3.16298077 C136.899834,3.16298077 90.7698675,23.6293269 57.3675497,56.9956731 C23.9652318,90.3620192 3.4147351,136.132212 3.4147351,187.174038 C3.4147351,238.215865 23.9031457,283.986058 57.3054636,317.352404 C77.2350993,337.260577 101.69702,352.393269 128.331954,361.386058 C146.895695,367.836058 166.514901,371.185096 187.003311,371.185096 L188.120861,371.185096 C236.734272,371.185096 283.298841,351.835096 317.880795,317.352404 C351.096854,283.986058 371.585265,237.967788 371.585265,187.174038 Z" id="Shape" fill="#FFAB40"></path>
                    <g id="Group" transform="translate(3.104305, 186.677885)">
                        <path d="M0.310430464,0.496153846 C15.2110927,66.9807692 126.655629,84.9663462 184.830298,85.2144231 C245.240066,85.2144231 346.316225,67.8490385 368.791391,2.72884615 C368.791391,5.51971154 368.48096,8.31057692 368.48096,11.1634615 C342.90149,72.3144231 244.619205,90.3 185.078642,90.3 C128.890728,89.9899038 23.9031457,72.0663462 0.869205298,12.3418269 C0.310430464,8.37259615 0.310430464,4.71346154 0.310430464,0.496153846" id="SVGID_1_" fill="#F6A623" opacity="0"></path>
                        <g transform="translate(-0.000000, 0.000000)">
                            <g id="Clipped" transform="translate(-0.000000, 0.000000)">
                                <mask id="mask-2" fill="white">
                                    <use xlink:href="#path-1"></use>
                                </mask>
                                <g id="SVGID_3_" opacity="0"></g>
                                <rect id="Rectangle-path" fill="#FFAB40" mask="url(#mask-2)" x="0.310430464" y="0.496153846" width="368.48096" height="89.7418269"></rect>
                            </g>
                            <path d="M0.310430464,0.496153846 C15.2110927,66.9807692 126.655629,84.9663462 184.830298,85.2144231 C245.240066,85.2144231 346.316225,67.8490385 368.791391,2.72884615 C368.791391,5.51971154 368.48096,8.31057692 368.48096,11.1634615 C342.90149,72.3144231 244.619205,90.3 185.078642,90.3 C128.890728,89.9899038 23.9031457,72.0663462 0.869205298,12.3418269 C0.310430464,8.37259615 0.310430464,4.71346154 0.310430464,0.496153846" id="SVGID_2_" stroke="#F6A623" stroke-width="11" opacity="0"></path>
                        </g>
                    </g>
                </g>
            </g>
            <text id="HOMEY-DEVICES" font-family="Roboto-Light, Roboto" font-size="50" font-weight="300" fill="#FFAB40">
                <tspan x="131.071289" y="602">HOMEY DEVICES</tspan>
            </text>
        </g>
    </g>
</svg>