<?xml version="1.0" encoding="utf-8"?>
<!-- Svg Vector Icons : http://www.onlinewebfonts.com/icon -->
<!DOCTYPE svg PUBLIC "-//W3C//DTD SVG 1.1//EN" "http://www.w3.org/Graphics/SVG/1.1/DTD/svg11.dtd">
<svg version="1.1" xmlns="http://www.w3.org/2000/svg" xmlns:xlink="http://www.w3.org/1999/xlink" x="0px" y="0px" viewBox="0 0 1000 1000" enable-background="new 0 0 1000 1000" xml:space="preserve">
<metadata> Svg Vector Icons : http://www.onlinewebfonts.com/icon </metadata>
<g transform="matrix(1 0 0 -1 0 1536)" fill-rule="evenodd" opacity=".763" fill="#FFAB40"><path d="M277.2,679.7c0-37.1-13-68.7-39-94.6c-26-26-57.5-39-94.6-39c-37.1,0-68.7,13-94.6,39c-26,26-39,57.5-39,94.6s13,68.7,39,94.6c26,26,57.5,39,94.6,39c37.1,0,68.7-13,94.6-39C264.2,748.3,277.2,716.8,277.2,679.7z M633.6,594.1c0.9-13-3-24.1-11.8-33.4c-8.3-9.7-19.3-14.6-32.7-14.6h-94c-11.6,0-21.6,3.8-29.9,11.5c-8.4,7.7-13,17.3-13.9,28.9c-10.2,106.2-53,197.1-128.4,272.5c-75.4,75.4-166.2,118.2-272.5,128.4c-11.6,0.9-21.2,5.6-28.9,13.9c-7.7,8.4-11.5,18.3-11.5,29.9v94c0,13.5,4.9,24.4,14.6,32.7c7.9,7.9,17.9,11.8,29.9,11.8H58c74.2-6,145.2-24.7,213-56c67.7-31.3,127.8-73.4,180.2-126.3c52.9-52.4,95-112.5,126.3-180.2C608.8,739.3,627.5,668.3,633.6,594.1z M989.9,592.7c0.9-12.5-3.2-23.4-12.5-32.7c-8.4-9.3-19-13.9-32-13.9h-99.5c-12.1,0-22.4,4.1-31,12.2c-8.6,8.1-13.1,18-13.6,29.6c-5.6,99.7-29,194.5-70.3,284.3c-41.3,89.8-95,167.7-161.1,233.8c-66.1,66.1-144.1,119.8-233.8,161.1c-89.8,41.3-184.5,65-284.3,71c-11.6,0.5-21.5,5-29.6,13.6c-8.1,8.6-12.2,18.7-12.2,30.3v99.5c0,13,4.6,23.7,13.9,32c8.4,8.4,18.6,12.5,30.6,12.5h2.1c121.6-6,237.9-33.9,349-83.5c111.1-49.6,209.8-117.8,296.1-204.6c86.8-86.3,155-185,204.6-296.1C956,830.6,983.8,714.2,989.9,592.7z"/></g>
</svg>