<?xml version="1.0" encoding="UTF-8"?>
<svg width="280px" height="280px" viewBox="0 0 280 280" version="1.1" xmlns="http://www.w3.org/2000/svg" xmlns:xlink="http://www.w3.org/1999/xlink">
    <!-- Generator: Sketch 41.2 (35397) - http://www.bohemiancoding.com/sketch -->
    <title>Artboard</title>
    <desc>Created with Sketch.</desc>
    <defs></defs>
    <g id="Page-1" stroke="none" stroke-width="1" fill="none" fill-rule="evenodd">
        <g id="Artboard" fill="#000000">
            <g id="button-icon" transform="translate(55.000000, 0.000000)">
                <g id="Capa_1">
                    <g id="Group">
                        <path d="M150.322528,131.172193 L150.321487,131.172193 L150.321487,131.171673 C150.321487,120.837175 141.917323,112.433011 131.582825,112.433011 C127.72632,112.433011 124.139405,113.604015 121.157249,115.608253 C118.594052,108.310037 111.63881,103.06342 103.474572,103.06342 C100.062528,103.06342 96.8643866,103.984089 94.1060223,105.5829 L94.1060223,74.9551673 C94.1060223,64.6206691 85.7018587,56.2165056 75.3673606,56.2165056 C65.0328625,56.2165056 56.6286989,64.6206691 56.6286989,74.9551673 L56.6286989,150.381338 C45.9527881,152.557323 37.8895167,162.017993 37.8895167,173.333532 C37.8895167,186.404015 42.8087732,198.874424 51.7469145,208.440743 C60.938513,218.278736 65.9977695,230.861561 65.9977695,243.903941 L65.9977695,257.65829 C65.9977695,262.905428 68.8086989,270.213532 82.2351673,275.151004 C90.3962825,278.149294 101.264758,279.807435 112.845204,279.807435 C134.460372,279.807435 159.692119,274.007584 159.691599,257.65881 L159.691599,233.110929 C159.691599,226.617844 160.525874,219.740669 162.230855,212.095316 C166.756134,191.717249 169.06119,170.795316 169.06119,149.910855 C169.06119,139.576357 160.657026,131.172193 150.322528,131.172193 Z M153.076729,210.061933 C151.221338,218.381784 150.322007,225.914721 150.322007,233.110409 L150.322007,257.65829 C150.322007,264.704089 133.51316,270.438364 112.844684,270.438364 C92.1762082,270.438364 75.3673606,264.704089 75.3673606,257.65829 L75.3673606,243.903941 C75.3673606,228.481561 69.4082528,213.612416 58.5866171,202.03197 C51.287881,194.217993 47.2591078,184.033383 47.2591078,173.333532 C47.2591078,167.227138 51.1765056,162.019554 56.6286989,160.085576 L56.6286989,178.018067 L65.9972491,178.018067 L65.9972491,74.9551673 C65.9972491,69.782974 70.2045353,65.5855762 75.3668401,65.5855762 C80.5296654,65.5855762 84.7364312,69.7834944 84.7364312,74.9551673 L84.7364312,121.781784 C84.7364312,121.78855 84.7359108,121.795316 84.7359108,121.802082 L84.7364312,121.802082 L84.7364312,140.540743 L94.1060223,140.540743 L94.1060223,121.792193 C94.1117472,116.624684 98.3159108,112.432491 103.475093,112.432491 C108.637918,112.432491 112.844684,116.630409 112.844684,121.802082 L112.844684,131.151375 C112.844684,131.158141 112.844164,131.164907 112.844164,131.171673 L112.844684,131.171673 L112.844684,140.540743 L122.213234,140.540743 L122.213234,131.171673 L122.213755,131.171673 C122.213755,125.99948 126.421041,121.802082 131.583346,121.802082 C136.746171,121.802082 140.952937,126 140.952937,131.171673 L140.952937,149.910335 L150.321487,149.910335 L150.321487,140.598513 C155.169963,140.728104 159.691599,144.768848 159.691599,149.910335 C159.691599,170.101561 157.461487,190.348996 153.076729,210.061933 Z" id="Shape"></path>
                        <path d="M9.78178439,74.9551673 C9.78178439,38.7987361 39.2015613,9.36959108 75.3673606,9.36959108 C111.53316,9.36959108 140.952937,38.7987361 140.952937,74.9551673 C140.952937,80.9049071 140.165502,86.7885502 138.591673,92.447881 L147.624015,94.9402974 C149.413829,88.465948 150.322528,81.7480297 150.322528,74.9551673 C150.322528,33.6265428 116.695465,0 75.3673606,0 C34.0392565,0 0.412193309,33.6265428 0.412193309,74.9546468 C0.412193309,96.2419331 9.51947955,116.601784 25.3910037,130.805799 L31.6405204,123.835465 C17.7456506,111.402007 9.78178439,93.5814126 9.78178439,74.9551673 Z" id="Shape"></path>
                    </g>
                </g>
            </g>
        </g>
    </g>
</svg>