<svg width="300" height="300" viewBox="0 0 300 300">
  <g fill-rule="evenodd" transform="translate(24)">
    <path d="M119.767347 283.787755L119.767347 125.485714C119.767347 117.881633 113.602041 111.710204 105.991837 111.710204L16.6469388 111.710204C9.04285714 111.710204 2.87142857 117.881633 2.87142857 125.485714L2.87142857 283.787755C2.87142857 291.391837 9.04285714 297.563265 16.6469388 297.563265L106.016327 297.563265C113.626531 297.563265 119.767347 291.391837 119.767347 283.787755zM84.0183673 64.622449C83.0142857 29.5836735 47.3755102 2.68163265 47.3755102 2.68163265 47.3755102 2.68163265 39.6306122 34.3897959 32.4306122 47.9265306 17.0020408 76.9346939 50.4857143 100.395918 50.4857143 100.395918 50.4857143 100.395918 47.0693878 82.9897959 53.4061224 71.5346939 59.7428571 60.0734694 61.3469388 51.5387755 61.3469388 51.5387755 61.3469388 51.5387755 71.1979592 58.1387755 70.0714286 74.2102041 69.5693878 81.2204082 65.0510204 105.87551 65.0510204 105.87551 65.0510204 105.87551 84.544898 82.9163265 84.0183673 64.622449zM131.442857 189.771429L131.442857 283.787755C131.442857 291.391837 137.614286 297.563265 145.218367 297.563265L234.587755 297.563265C242.197959 297.563265 248.363265 291.391837 248.363265 283.787755L248.363265 189.771429C248.363265 182.167347 242.197959 175.995918 234.587755 175.995918L145.218367 175.995918C137.614286 175.995918 131.442857 182.167347 131.442857 189.771429zM208.52449 110.779592C201.32449 97.2428571 193.573469 65.5285714 193.573469 65.5285714 193.573469 65.5285714 157.940816 92.4367347 156.936735 127.469388 156.410204 145.787755 175.922449 168.728571 175.922449 168.728571 175.922449 168.728571 171.404082 144.067347 170.902041 137.063265 169.757143 120.967347 179.632653 114.391837 179.632653 114.391837 179.632653 114.391837 181.212245 122.926531 187.573469 134.381633 193.934694 145.836735 190.487755 163.24898 190.487755 163.24898 190.487755 163.24898 223.946939 139.787755 208.52449 110.779592z"/>
  </g>
</svg>
