<svg width="300" height="300" viewBox="0 0 300 300">
  <g fill="none" fill-rule="evenodd">
    <path stroke="#000" stroke-width=".9" d="M188.808696,248.642647 C194.056522,270.101471 180.943478,290.642647 159.46087,294.397059 C159.46087,294.397059 157.778261,294.935294 155.791304,294.935294 C154.978261,294.935294 152.582609,297.913235 150.508696,297.913235 C148.421739,297.913235 146.178261,294.935294 145.430435,294.935294 C143.391304,294.935294 141.543478,294.383824 141.543478,294.383824 C120.091304,290.572059 106.843478,270.083824 111.973913,248.558824 L127.7,182.607353 C129.091304,176.779412 135.021739,172.058824 140.895652,172.058824 L159.391304,172.058824 C165.286957,172.058824 171.213043,176.761765 172.63913,182.554412 L188.808696,248.642647 Z"/>
    <polygon fill="#000" points="3.261 215.074 101.087 159.926 101.087 119.118 143.478 119.118 143.478 3.309 156.522 3.309 156.522 119.118 198.913 119.118 198.913 159.926 296.739 215.074 296.739 221.691 3.261 221.691"/>
  </g>
</svg>
