<svg width="300" height="300" viewBox="0 0 300 300">
  <g fill-rule="evenodd" transform="translate(46)">
    <path d="M190.043077,280.490769 C188.995385,280.149231 187.970769,280.149231 187.264615,279.807692 C185.875385,279.466154 184.490769,279.466154 182.76,279.124615 C180.683077,278.778462 178.610769,278.436923 176.52,278.436923 C173.746154,278.095385 170.986154,278.095385 168.207692,277.753846 C164.746154,277.407692 161.284615,277.407692 157.823077,277.066154 C153.318462,276.724615 149.169231,276.724615 144.664615,276.383077 C139.130769,276.383077 133.938462,276.041538 128.4,276.041538 C121.823077,276.041538 115.601538,276.041538 109.02,275.695385 L103.486154,275.695385 L97.9523077,275.695385 C91.3707692,275.695385 85.1492308,275.695385 78.5676923,276.041538 C73.0338462,276.041538 67.8415385,276.383077 62.3076923,276.383077 C57.7984615,276.383077 53.6538462,276.724615 49.1446154,277.066154 C45.6830769,277.407692 42.2215385,277.407692 38.76,277.753846 C35.9861538,278.095385 33.2261538,278.095385 30.4523077,278.436923 C28.3753846,278.778462 26.3030769,278.778462 24.2123077,279.124615 C22.8230769,279.466154 21.4384615,279.466154 19.7076923,279.807692 C18.66,280.149231 17.6307692,280.149231 16.9292308,280.490769 C16.2461538,280.836923 14.5153846,281.178462 14.1507692,281.538462 L14.1507692,282.221538 C15.1984615,284.298462 17.6123077,286.029231 19.6892308,287.072308 C18.6415385,286.029231 15.8815385,283.269231 17.6123077,281.88 C18.3,281.196923 19.3430769,281.196923 20.3907692,281.196923 C23.8523077,280.509231 27.6553846,280.149231 31.1169231,279.807692 C35.2661538,279.466154 39.7707692,279.124615 43.92,279.124615 C48.4246154,278.778462 52.9153846,278.778462 57.7661538,278.778462 C62.2707692,278.778462 66.7615385,278.436923 71.2661538,278.436923 L79.5784615,278.436923 C80.9676923,287.432308 90.6507692,294.355385 102.766154,294.355385 C114.881538,294.355385 124.578462,287.432308 125.949231,278.436923 L135.286154,278.436923 C139.795385,278.436923 144.286154,278.436923 148.790769,278.778462 C153.3,278.778462 157.790769,279.124615 162.636923,279.124615 C166.786154,279.466154 171.290769,279.466154 175.44,279.807692 C178.901538,280.149231 182.704615,280.490769 186.166154,281.196923 C186.849231,281.196923 188.238462,281.196923 188.944615,281.88 C190.670769,283.610769 187.896923,286.029231 186.867692,287.072308 C188.944615,286.029231 191.376923,284.658462 192.406154,282.221538 C192.406154,281.88 192.747692,281.538462 192.406154,281.538462 C192.456923,281.196923 190.726154,280.855385 190.043077,280.490769 Z M103.163077,292.970769 C91.7307692,292.970769 82.7353846,286.730769 81.3461538,278.436923 L84.1246154,278.436923 L94.1630769,278.436923 L101.086154,278.436923 L103.504615,278.436923 L103.504615,278.436923 L103.504615,278.436923 L105.918462,278.436923 L112.841538,278.436923 L122.884615,278.436923 L124.615385,278.436923 C123.567692,286.730769 114.572308,292.970769 103.163077,292.970769 Z"/>
    <path d="M197.307692,272.201538 L197.307692,272.201538 C196.624615,260.769231 190.384615,210.576923 128.076923,175.62 C129.466154,165.576923 119.423077,161.432308 119.423077,161.432308 L119.423077,141.706154 C119.423077,141.706154 120.106154,123.715385 105.576923,118.163077 L105.576923,1.49538462 L102.798462,1.49538462 L102.798462,118.144615 C87.9092308,123.678462 88.6107692,141.687692 88.6107692,141.687692 L88.6107692,161.413846 C88.6107692,161.413846 78.5676923,165.558462 79.9569231,175.601538 C17.3076923,210.235385 11.0676923,260.769231 10.7261538,272.201538 C10.7261538,272.201538 2.07230769,276.004615 3.80307692,282.927692 C4.49076923,287.072308 9.33692308,288.803077 12.7984615,290.192308 C19.0384615,292.606154 25.6015385,293.995385 32.1830769,295.043077 C45.6830769,297.456923 59.5292308,297.816923 73.0338462,298.504615 C83.4184615,298.846154 93.8030769,298.846154 104.187692,298.846154 C114.572308,298.846154 124.956923,298.846154 135.341538,298.504615 C148.846154,298.163077 162.692308,297.456923 176.196923,295.043077 C182.778462,293.995385 189.355385,292.264615 195.576923,290.192308 C199.038462,288.803077 203.889231,287.072308 204.572308,282.927692 C205.62,276.004615 197.307692,272.201538 197.307692,272.201538 Z M183.803077,269.423077 L179.658462,269.423077 C179.658462,269.423077 181.047692,251.067692 168.226154,228.226154 C168.226154,228.567692 182.413846,245.533846 183.803077,269.423077 Z M90.6830769,156.581538 L90.6830769,150.701538 L90.6830769,139.633846 C90.6830769,136.513846 90.3415385,133.052308 92.0723077,129.932308 C93.12,128.201538 94.4907692,126.816923 95.8753846,125.427692 C97.6061538,124.038462 99.6830769,122.649231 101.755385,121.966154 C98.6353846,123.355385 96.5630769,125.427692 94.8323077,128.547692 C94.1446154,129.932308 93.7846154,130.961538 93.4430769,132.350769 C93.1015385,134.081538 93.1015385,135.812308 93.1015385,137.884615 L93.1015385,148.610769 L93.1015385,158.653846 L90.3230769,158.653846 C90.3415385,158.312308 90.3415385,157.606154 90.6830769,156.581538 Z M83.4184615,170.769231 C84.4661538,167.990769 86.1969231,165.918462 88.2692308,164.187692 L90,164.187692 C92.7784615,163.846154 95.5338462,163.846154 97.6061538,165.576923 C92.76,165.576923 87.9092308,167.649231 84.8076923,171.452308 C84.4661538,171.798462 84.1246154,172.14 83.4184615,172.14 C83.0769231,172.158462 83.4184615,171.452308 83.4184615,170.769231 Z M81.3461538,178.375385 L84.1246154,176.990769 L98.3123077,176.990769 C98.3123077,176.990769 99.7015385,178.375385 95.5338462,178.375385 L85.4907692,178.375385 C85.4907692,178.375385 25.9615385,203.995385 16.26,271.836923 L13.4861538,271.836923 C13.5046154,271.836923 17.6492308,213.696923 81.3461538,178.375385 Z M28.0338462,269.423077 L23.8892308,269.423077 C25.2784615,245.192308 39.4661538,228.226154 39.4661538,228.226154 C26.6446154,251.067692 28.0338462,269.423077 28.0338462,269.423077 Z M200.427692,281.538462 C199.74,285.341538 194.187692,287.413846 191.086154,288.803077 C190.043077,288.803077 188.672308,289.490769 187.283077,289.850769 C186.24,290.192308 185.210769,290.192308 183.821538,290.533846 C181.047692,290.875385 178.629231,291.581538 175.855385,291.923077 C170.663077,292.606154 165.124615,293.312308 159.932308,293.995385 C145.744615,295.726154 131.556923,296.413846 117.009231,296.773846 L103.846154,296.773846 L103.846154,296.773846 L103.846154,296.773846 L90.6830769,296.773846 C76.4953846,296.432308 61.9476923,295.726154 47.76,293.995385 C42.2215385,293.312308 37.0292308,292.606154 31.8369231,291.923077 C29.0630769,291.581538 26.6446154,291.24 23.8707692,290.533846 C22.8230769,290.192308 21.7984615,290.192308 20.4092308,289.850769 C19.3615385,289.509231 17.9907692,288.803077 16.6061538,288.803077 C13.4861538,287.413846 7.95230769,285.341538 7.26461538,281.538462 C6.58153846,278.418462 8.99538462,276.004615 11.4138462,274.273846 C30.7938462,270.470769 101.067692,270.124615 103.827692,270.124615 C106.246154,270.124615 176.861538,270.124615 196.246154,274.273846 C199.038462,276.004615 201.110769,278.418462 200.427692,281.538462 Z"/>
    <path d="M116.644615 282.927692L115.601538 283.269231C114.913846 283.610769 114.212308 284.316923 113.870769 285 113.529231 285.341538 113.529231 285.683077 113.529231 286.047692 113.870769 286.730769 114.572308 286.730769 115.26 286.389231 116.303077 286.047692 116.990769 285 116.990769 284.316923 117.009231 283.610769 117.692308 283.269231 116.644615 282.927692zM121.153846 281.196923L120.470769 280.855385C119.783077 281.196923 119.783077 281.898462 120.124615 282.586154 120.470769 282.927692 121.513846 282.927692 121.855385 282.586154 122.201538 281.88 121.836923 281.196923 121.153846 281.196923z"/>
  </g>
</svg>
