<svg width="300" height="300" viewBox="0 0 300 300">
  <g fill-rule="evenodd" transform="translate(0 33)">
    <path d="M34.6411765 233.047059C34.6411765 214.522059 19.7514706 199.632353 1.22205882 199.632353L1.22205882 233.047059 34.6411765 233.047059zM266.585294 3.41029412L50.5102941 3.41029412C33.3132353 3.41029412 19.4029412 17.3029412 19.4029412 34.5176471L19.4029412 101.020588C26.3514706 102.022059 32.9691176 103.332353 39.5867647 105.330882L39.5867647 34.1911765C39.5867647 28.2264706 44.55 23.2632353 50.5102941 23.2632353L266.585294 23.2632353C272.545588 23.2632353 277.508824 28.2264706 277.508824 34.1911765L277.508824 181.433824C277.508824 187.398529 272.545588 192.361765 266.585294 192.361765L128.594118 192.361765C130.579412 198.979412 132.233824 205.597059 133.230882 212.541176L266.585294 212.541176C283.782353 212.541176 297.692647 198.648529 297.692647 181.433824L297.692647 34.1911765C297.344118 17.3205882 283.455882 3.41029412 266.585294 3.41029412z"/>
    <path d="M49.5308824,233.047059 L76.3279412,233.047059 C76.3279412,191.686765 42.5823529,157.945588 1.22205882,157.945588 L1.22205882,184.742647 C28.0235294,184.742647 49.5308824,206.576471 49.5308824,233.047059 Z"/>
    <path d="M92.5455882,233.047059 L119.342647,233.047059 C119.342647,167.872059 66.4014706,114.930882 1.22205882,114.930882 L1.22205882,141.727941 C51.5117647,141.727941 92.5455882,182.761765 92.5455882,233.047059 Z"/>
  </g>
</svg>
