<svg width="300" height="300" viewBox="0 0 300 300">
  <path fill-rule="evenodd" d="M263.392,242.92 C263.392,201.248 236.908,163.356 200.408,145.968 C199.172,120.684 186.328,101.124 169.032,94.796 C168.548,86.34 162.876,79.748 155.64,79.748 C148.112,79.748 142.22,86.856 142.172,95.796 C133.424,99.732 125.94,107.092 120.752,116.92 L61.596,116.92 C58.876,99.076 46.236,85.544 31.08,85.544 C13.94,85.544 0,102.84 0,124.108 C0,145.372 13.94,162.672 31.08,162.672 C46.908,162.672 59.972,147.92 61.892,128.92 L116,128.92 C114.472,134.232 113.516,139.968 113.22,146.044 C76.8,163.452 50.392,201.312 50.392,242.92 L50.392,248.92 L88.268,248.92 C90.284,277.512 120.908,300 158.268,300 C195.628,300 226.236,277.512 228.252,248.92 L263.392,248.92 L263.392,242.92 Z M31.08,150.672 C20.564,150.672 12,138.748 12,124.108 C12,109.452 20.564,97.544 31.08,97.544 C39.812,97.544 47.172,105.764 49.424,116.92 L29.392,116.92 L29.392,128.92 L49.828,128.92 C48.204,141.28 40.424,150.672 31.08,150.672 Z M155.532,91.732 C155.736,91.812 156.08,92.076 156.392,92.608 C155.844,92.608 155.328,92.672 154.8,92.7 C155.112,92.108 155.424,91.812 155.532,91.732 Z M156.812,104.576 C172.3,104.576 185.204,118.952 187.984,140.952 C178.08,137.7 167.628,135.92 156.892,135.92 C146.112,135.92 135.596,137.716 125.64,141 C128.392,118.984 141.312,104.576 156.812,104.576 Z M158.268,288 C127.58,288 102.456,271.404 100.36,248.92 L216.156,248.92 C214.08,271.404 188.956,288 158.268,288 Z M62.252,236.92 C65.704,189.624 109.312,147.936 157.016,147.936 C204.72,147.936 248.328,189.624 251.784,236.92 L62.252,236.92 Z"/>
</svg>
