<svg width="300" height="300" viewBox="0 0 300 300">
  <g fill-rule="evenodd" transform="translate(0 8)">
    <path d="M147.945869 40.0190264C147.945869 30.0284208 144.051514 20.6321572 136.976014 13.5566575 129.900515 6.48115775 120.504251 2.5868027 110.491004 2.5868027 100.494738 2.5868027 91.0984741 6.48115775 84.0229743 13.5566575 80.9267357 16.6472358 78.0738942 20.6321572 75.6172807 25.075571 73.0757612 20.4510244 70.1153721 16.296291 66.928567 13.1094859 59.8530673 6.03398617 50.4568036 2.14529152 40.4605376 2.14529152 30.469932 2.14529152 21.0736684 6.03398617 13.9981687 13.1094859-.594341977 27.7076569-.594341977 51.4756756 13.9981687 66.0681862 17.1566717 69.2266893 21.181216 72.0568892 25.585007 74.4908611 20.983102 76.9701162 16.8057269 79.9078637 13.5566575 83.1795748-1.04151356 97.7720854-1.04151356 121.523123 13.5566575 136.115634 20.6321572 143.191133 30.0284208 147.079828 40.0190264 147.079828 50.0379341 147.079828 59.4115561 143.191133 66.4870558 136.115634 66.7757362 135.826953 67.0644166 135.49865 67.3304554 135.187328L67.3304554 280.699225 83.1795748 280.699225 83.1795748 136.115634C83.3154244 136.245823 83.4456136 136.426956 83.5814632 136.557145 90.6569629 143.632644 100.053227 147.521339 110.066474 147.521339 120.06274 147.521339 129.459003 143.632644 136.534503 136.557145 143.610003 129.481645 147.504358 120.085381 147.504358 110.089115 147.504358 100.09851 143.610003 90.6965857 136.534503 83.621086 133.37034 80.4625829 129.351456 77.632383 124.947665 75.1984111 129.526928 72.7248164 133.704303 69.8040501 136.976014 66.532339 144.051514 59.4341977 147.945869 50.0379341 147.945869 40.0190264zM67.0870582 97.8400102C66.9512086 99.6117153 66.6625282 101.490968 66.221017 103.455127 64.3644059 111.702329 60.0511813 120.108023 55.2794643 124.87974 51.1869952 128.949567 45.7926342 131.208067 40.0190264 131.208067 34.2737207 131.208067 28.8340765 128.949567 24.764249 124.87974 16.3642158 116.479707 16.3642158 102.79286 24.764249 94.3701851 30.4472904 88.6871438 42.4529984 82.8739132 53.1964371 82.517308 53.6832315 82.517308 54.1926675 82.6078744 54.6794619 82.6078744 55.0360671 82.6078744 55.3643703 82.5399496 55.7209754 82.517308 58.5964585 82.6701388 61.9530756 83.3607076 64.1210087 85.5229803 65.8927138 87.2946854 66.8832838 90.1928101 67.1040394 93.815466 67.0644166 95.1456599 67.041775 96.4701935 67.0870582 97.8400102zM67.551211 56.253053C67.239889 59.3436313 66.3115834 61.9530756 64.5851615 63.7021391 62.3096808 65.9776198 58.6587229 66.6229054 55.6756922 66.7078114 55.1888979 66.7078114 54.7473867 66.6002638 54.2605923 66.6002638 53.9039871 66.6002638 53.5530423 66.6625282 53.1964371 66.6625282 42.5831875 66.1587526 30.8208768 60.4530697 25.2284018 54.8549343 16.8283685 46.4322594 16.8283685 32.7454127 25.2284018 24.3453795 29.2982293 20.275552 34.7152319 18.0227129 40.4831792 18.0227129 46.256787 18.0227129 51.6737896 20.2529104 55.743617 24.3453795 62.0662836 30.668046 66.928567 42.3001676 67.5908338 51.6737896 67.4832862 53.2417203 67.4832862 54.7473867 67.551211 56.253053zM125.349553 94.8116963C129.41372 98.8815238 131.67222 104.298526 131.67222 110.066474 131.67222 115.840082 129.41372 121.257084 125.349553 125.326912 121.279726 129.41372 115.862723 131.649578 110.089115 131.649578 104.321168 131.649578 98.9041654 129.41372 94.8343379 125.326912 90.0569605 120.549534 85.7663775 112.14384 83.8871247 103.896638 83.4003304 101.734365 83.1173104 99.6966213 82.9814608 97.7720854 83.0493856 96.5154767 83.0493856 95.2984907 83.0041024 94.0815047 83.2701412 90.5437549 84.2437299 87.713555 85.9701519 85.9701519 88.2456326 83.6890108 91.89093 83.0720272 94.8796211 82.9588192 95.3664155 82.9814608 95.8079267 83.0720272 96.2947211 83.0720272 96.6456658 83.0720272 97.002271 83.0041024 97.3532158 83.0041024 107.966465 83.4908968 119.751418 89.2192213 125.349553 94.8116963zM125.768423 55.2794643C120.108023 60.939864 108.102315 66.7530946 97.3532158 67.126681 96.8664214 67.1040394 96.3400043 67.041775 95.8532099 67.041775 95.4739631 67.041775 95.1456599 67.1040394 94.7664131 67.126681 91.89093 66.9738502 88.5569546 66.2889418 86.3890214 64.1436503 84.6173163 62.3776056 83.6437276 59.4794809 83.4003304 55.8738062 83.4682552 54.5266311 83.4908968 53.1794559 83.422972 51.8039788 83.5814632 50.0379341 83.8418415 48.1813229 84.3116547 46.2115038 86.1682659 37.9643013 90.4758301 29.5642681 95.2532075 24.7868906 99.3230349 20.7170632 104.740038 18.4642241 110.507985 18.4642241 116.281593 18.4642241 121.698595 20.7170632 125.768423 24.7868906 129.83825 28.8567181 132.091089 34.2737207 132.091089 40.041668 132.091089 45.7926342 129.855231 51.2096368 125.768423 55.2794643zM270.770884 90.4984717C267.804834 89.2645045 264.402934 89.9267713 262.127453 92.202252L245.185877 109.030621 232.34243 92.8871604C230.882047 91.0531909 228.66883 89.9494129 226.302783 89.9041297 223.982019 89.7456385 221.706539 90.8550769 220.138608 92.6211216L205.851759 109.053262 190.353584 92.4230076C188.117726 90.0569605 184.670543 89.2645045 181.642229 90.4531885 178.613915 91.6475328 176.621454 94.5909407 176.621454 97.8400102L176.621454 139.432628C176.621454 164.038386 194.666809 184.449787 218.214072 188.253576L218.214072 280.676584 234.068852 280.676584 234.068852 188.276217C253.919874 185.027148 270.352014 169.789352 274.597314 149.627008 275.282223 146.242089 275.633167 142.811886 275.633167 139.409986L275.633167 97.8173686C275.633167 94.6362239 273.708631 91.7380992 270.770884 90.4984717zM259.784048 139.409986C259.784048 141.73075 259.540651 144.096797 259.076498 146.372278 255.821768 161.853471 241.959449 173.061063 226.127311 173.061063 207.555539 173.061063 192.476234 157.959116 192.476234 139.387345L192.476234 117.94009 200.259284 126.277859C201.781931 127.913714 203.904581 128.819378 206.208364 128.796737 208.438562 128.751453 210.561211 127.755223 212.044236 126.074084L225.861272 110.202323 238.29151 125.813706C239.70661 127.579751 241.783977 128.660887 244.036816 128.796737 246.295315 128.926926 248.48023 128.089187 250.099104 126.521256L259.801029 116.875935 259.801029 139.409986 259.784048 139.409986z"/>
    <polygon points="37.166 280.654 53.021 280.654 53.021 223.41 37.166 223.41"/>
    <polygon points="97.512 280.654 113.366 280.654 113.366 223.41 97.512 223.41"/>
    <polygon points="127.693 280.654 143.548 280.654 143.548 223.41 127.693 223.41"/>
    <polygon points="157.852 280.654 173.706 280.654 173.706 223.41 157.852 223.41"/>
    <polygon points="188.033 280.654 203.888 280.654 203.888 223.41 188.033 223.41"/>
    <polygon points="248.373 280.654 264.227 280.654 264.227 223.41 248.373 223.41"/>
    <polygon points="278.554 280.654 294.409 280.654 294.409 223.41 278.554 223.41"/>
  </g>
</svg>
