<svg width="300" height="300" viewBox="0 0 300 300">
  <path fill-rule="evenodd" d="M233.844,110.592 L217.172,110.592 C215.704,77.592 192.672,51.028 161.592,45.076 C165.392,41.796 167.812,36.528 167.812,31.108 C167.812,21.216 159.796,13 149.908,13 C140.016,13 132,20.904 132,30.796 C132,35.952 134.204,41.388 137.688,44.656 C105,49.356 80.392,77.592 78.86,110.592 L65.5,110.592 C56.392,110.592 49,114.5 49,121.092 C49,127.684 56.392,131.592 65.5,131.592 L74.22,131.592 C75.14,197.592 102.892,245.624 139.796,253.372 C135.108,256.592 132.016,262.108 132.016,268.232 C132.016,278.124 140.032,286.184 149.92,286.184 C159.812,286.184 167.828,278.2 167.828,268.312 C167.828,262.232 164.796,256.672 160.156,253.436 C197.264,245.952 225.204,197.592 226.124,131.592 L233.844,131.592 C242.952,131.592 250.344,127.684 250.344,121.092 C250.344,114.5 242.952,110.592 233.844,110.592 Z M173.28,131.592 C173.28,179.592 158.736,215.044 149.22,234.328 C140.048,216.64 124.264,179.592 123.564,131.592 L173.28,131.592 Z M87.424,131.592 L110.36,131.592 C111.032,182.592 126.36,218.576 136.328,238.248 C109.252,227.092 88.28,185.592 87.424,131.592 Z M161.672,239.124 C171.86,218.372 186.484,182.592 186.484,131.592 L212.92,131.592 C212.048,185.592 189.86,229.56 161.672,239.124 Z"/>
</svg>
