<?xml version="1.0" encoding="utf-8"?>
<!-- Svg Vector Icons : http://www.onlinewebfonts.com/icon -->
<!DOCTYPE svg PUBLIC "-//W3C//DTD SVG 1.1//EN" "http://www.w3.org/Graphics/SVG/1.1/DTD/svg11.dtd">
<svg version="1.1" xmlns="http://www.w3.org/2000/svg" xmlns:xlink="http://www.w3.org/1999/xlink" x="0px" y="0px" viewBox="0 0 1000 1000" enable-background="new 0 0 1000 1000" xml:space="preserve">
<metadata> Svg Vector Icons : http://www.onlinewebfonts.com/icon </metadata>
<g><path d="M10,40.5L10,40.5L10,40.5z"/><path d="M852.4,634v287.2c0,10.4-3.8,19.3-11.4,26.9s-16.6,11.4-26.9,11.4H584.3V729.7H431.2v229.7H201.5c-10.4,0-19.3-3.8-26.9-11.4c-7.6-7.6-11.4-16.6-11.4-26.9V634c0-0.4,0.1-1,0.3-1.8c0.2-0.8,0.3-1.4,0.3-1.8l344-283.6l344,283.6C852.2,631.2,852.4,632.4,852.4,634L852.4,634z M985.8,592.7L948.7,637c-3.2,3.6-7.4,5.8-12.6,6.6h-1.8c-5.2,0-9.4-1.4-12.6-4.2l-414-345.2l-414,345.2c-4.8,3.2-9.6,4.6-14.4,4.2c-5.2-0.8-9.4-3-12.6-6.6l-37.1-44.3c-3.2-4-4.6-8.7-4.2-14.1c0.4-5.4,2.6-9.7,6.6-12.9l430.2-358.4c12.8-10.4,27.9-15.6,45.5-15.6c17.5,0,32.7,5.2,45.5,15.6l146,122V212.8c0-5.6,1.8-10.2,5.4-13.8c3.6-3.6,8.2-5.4,13.8-5.4h114.9c5.6,0,10.2,1.8,13.8,5.4c3.6,3.6,5.4,8.2,5.4,13.8v244.1l131,108.9c4,3.2,6.2,7.5,6.6,12.9C990.3,584,988.9,588.7,985.8,592.7L985.8,592.7z"/></g>
</svg>