<?xml version="1.0" encoding="utf-8"?>
<!-- Svg Vector Icons : http://www.onlinewebfonts.com/icon -->
<!DOCTYPE svg PUBLIC "-//W3C//DTD SVG 1.1//EN" "http://www.w3.org/Graphics/SVG/1.1/DTD/svg11.dtd">
<svg version="1.1" xmlns="http://www.w3.org/2000/svg" xmlns:xlink="http://www.w3.org/1999/xlink" x="0px" y="0px" viewBox="0 0 1000 1000" enable-background="new 0 0 1000 1000" xml:space="preserve">
<metadata> Svg Vector Icons : http://www.onlinewebfonts.com/icon </metadata>
<g><g><path d="M559.7,580.5c-60.8-49.7-99.5-125.2-99.5-209.8c0-42.5,10.6-82.2,28.1-118L446.5,211L192.9,464.7c47.1,37.1,42.4,73.4-12.8,108.7l338.8,338.8h166c21.4,0,38.7,17.3,38.7,38.7v38.7H542.4L542,990l-0.4-0.4h-282v-38.7c0-21.4,17.3-38.7,38.7-38.7h166L144.6,592.7c-63.2,27.1-94.3,0.9-93-79.5c1.4-85.5,37.7-108.3,107.9-69.8l259.6-259.6L393.5,158c-15.1-15.1-15.1-39.6,0-54.7l82-82c15.1-15.1,39.6-15.1,54.7,0l98.9,98.9c31.5-12.8,65.7-20.2,101.8-20.2c89,0,168.1,38.2,217.4,104.6C950.1,205.1,561.1,581.1,559.7,580.5z M859,338.6c0,0,65.3,82.2,0,147.4c-65.3,65.3-146.6-0.8-146.6-0.8L859,338.6z"/></g></g>
</svg>