<svg width="300" height="300" viewBox="0 0 300 300">
  <g fill-rule="evenodd">
    <path d="M116.730769 277.735385L134.38 298.504615C135.067692 299.187692 135.769231 299.547692 136.798462 299.547692L162.072308 299.547692C163.12 299.547692 163.803077 299.206154 164.490769 298.504615L182.14 277.735385C182.481538 277.047692 182.823077 276.346154 182.823077 275.663077L182.823077 274.615385C182.823077 272.884615 181.438462 271.495385 179.707692 271.495385L119.509231 271.495385C117.778462 271.495385 116.389231 272.884615 116.389231 274.615385L116.389231 275.663077C116.047692 276.346154 116.389231 277.029231 116.730769 277.735385zM184.913846 250.043077L114.316923 250.043077C111.538462 250.043077 109.124615 247.624615 109.124615 244.850769L109.124615 242.432308C109.124615 239.658462 111.538462 237.24 114.316923 237.24L185.278462 237.24C188.052308 237.24 190.470769 239.658462 190.470769 242.432308L190.470769 244.850769C190.470769 247.606154 188.033846 250.043077 184.913846 250.043077zM181.452308 267.350769L117.778462 267.350769C115 267.350769 112.586154 264.932308 112.586154 262.158462L112.586154 259.038462C112.586154 256.26 115 253.846154 117.778462 253.846154L181.129231 253.846154C183.907692 253.846154 186.321538 256.26 186.321538 259.038462L186.321538 262.158462C186.303077 264.913846 184.230769 267.350769 181.452308 267.350769zM155.490769.812307692C102.183077-2.64923077 57.8846154 39.9323077 57.8846154 92.5430769 57.8846154 100.149231 58.9323077 107.778462 60.6630769 115.043077 63.0769231 123.355385 67.24 132.009231 71.3892308 140.663077 83.1630769 163.846154 98.0338462 186.346154 98.74 199.509231 99.0815385 208.163077 100.124615 214.398462 102.201538 218.889231 102.884615 220.62 106.346154 225.124615 110.167692 230.316923 111.215385 231.706154 112.946154 232.393846 114.316923 232.393846L184.590769 232.393846C186.321538 232.393846 187.710769 231.706154 188.74 230.316923 192.543077 225.470769 196.004615 220.62 196.706154 218.889231 198.778462 214.38 199.826154 207.816923 200.167692 199.509231 200.509231 186.346154 215.744615 163.846154 227.518462 140.663077 232.023077 132.009231 235.830769 123.355385 238.244615 115.043077 240.316923 106.730769 241.364615 98.4184615 241.023077 89.4230769 239.615385 42.3507692 202.221538 3.56769231 155.490769.812307692zM72.7784615 88.0338462L70.3415385 87.6923077C74.1446154 56.88 94.9138462 29.5292308 123.312308 17.4138462L124.355385 19.8323077C97.0092308 31.6246154 76.5815385 58.2692308 72.7784615 88.0338462z"/>
  </g>
</svg>
