<svg width="300" height="300" viewBox="0 0 300 300">
  <path fill-rule="evenodd" d="M18,214.984 L135.296,214.984 L135.296,217.892 C121.892,219.236 71.28,224.844 67.796,233.14 C67.312,234.312 67.516,235.564 68.392,236.64 L68.844,237.204 L69.564,237.204 C75.108,237.204 100.564,234.892 119.14,233.22 C129.14,232.312 137.764,231.532 138.704,231.532 L164.892,231.516 C175.468,232.656 228.344,238.36 229.532,238.36 C230.624,238.36 231.892,237.28 231.968,235.72 C232.344,228.936 210.092,222.952 165.828,217.908 L165.828,214.968 L283,214.968 L283,61 L18,61 L18,214.984 Z M277.376,209.268 L23.092,209.268 L23.092,66.344 L277.376,66.344 L277.376,209.268 Z M164.124,220.752 C221.78,227.236 228.156,233.936 228.86,235.312 C222.904,234.752 181.564,230.312 165.032,228.532 L138.688,228.532 C137.672,228.532 130.844,229.14 118.86,230.236 C101.36,231.812 77.732,233.952 70.624,234.188 C73.108,229.58 106.124,223.752 136.936,220.752 L138.296,220.624 L138.296,215 L162.796,215 L162.796,220.608 L164.124,220.752 Z"/>
</svg>
