<svg width="300" height="300" viewBox="0 0 300 300">
  <g fill-rule="evenodd" transform="translate(0 48)">
    <path d="M201.52381,97.1 L201.357143,97.1333333 C198.604762,44.4 154.947619,2.3047619 101.52381,2.3047619 C46.3714286,2.3047619 1.48571429,47.1904762 1.48571429,102.361905 C1.48571429,157.533333 46.3904762,202.438095 101.542857,202.438095 C148.233333,202.438095 187.442857,170.27619 198.457143,126.971429 C209.447619,170.27619 248.642857,202.438095 295.295238,202.438095 L298.47619,202.438095 L298.47619,167.07619 L295.295238,167.07619 C251.561905,167.07619 212.109524,137.647619 201.52381,97.1 Z M101.542857,196.07619 C49.8904762,196.07619 7.86666667,154.057143 7.86666667,102.380952 C7.86666667,50.7238095 49.8904762,8.68571429 101.542857,8.68571429 C153.219048,8.68571429 195.27619,50.7238095 195.27619,102.380952 C195.27619,154.038095 153.219048,196.07619 101.542857,196.07619 Z M292.114286,196.019048 C247.357143,194.533333 210.471429,161.457143 202.995238,118.433333 C219.7,150.333333 254.166667,172.228571 292.114286,173.4 L292.114286,196.019048 Z"/>
    <path d="M148.97619 35.4904762C137.947619 35.4904762 128.961905 44.4761905 128.961905 55.5238095 128.961905 66.5714286 137.947619 75.5571429 148.97619 75.5571429 160.02381 75.5571429 169.009524 66.5714286 169.009524 55.5238095 169.028571 44.4952381 160.042857 35.4904762 148.97619 35.4904762zM53.5904762 102.490476C53.5904762 91.4428571 44.6047619 82.4571429 33.5571429 82.4571429 22.5238095 82.4571429 13.5428571 91.4619048 13.5428571 102.490476 13.5428571 113.542857 22.5238095 122.52381 33.5571429 122.52381 44.6047619 122.52381 53.5904762 113.542857 53.5904762 102.490476zM52.9571429 129.466667C41.9285714 129.466667 32.9428571 138.447619 32.9428571 149.5 32.9428571 160.547619 41.9285714 169.533333 52.9571429 169.533333 64.0047619 169.533333 72.9904762 160.547619 72.9904762 149.5 73.0095238 138.447619 64.0238095 129.466667 52.9571429 129.466667zM53.9809524 34.4666667C42.952381 34.4666667 33.947619 43.452381 33.947619 54.5 33.947619 65.552381 42.9333333 74.5333333 53.9809524 74.5333333 65.0285714 74.5333333 74.0333333 65.552381 74.0333333 54.5 74.0333333 43.452381 65.047619 34.4666667 53.9809524 34.4666667zM101.561905 150.466667C90.5142857 150.466667 81.5285714 159.447619 81.5285714 170.5 81.5285714 181.547619 90.5142857 190.533333 101.561905 190.533333 112.609524 190.533333 121.595238 181.547619 121.595238 170.5 121.614286 159.466667 112.609524 150.466667 101.561905 150.466667zM101.561905 16.5C90.5142857 16.5 81.5285714 25.4857143 81.5285714 36.5333333 81.5285714 47.5809524 90.5142857 56.5666667 101.561905 56.5666667 112.609524 56.5666667 121.595238 47.5809524 121.595238 36.5333333 121.614286 25.4857143 112.609524 16.5 101.561905 16.5zM147.952381 130.485714C136.904762 130.485714 127.919048 139.471429 127.919048 150.519048 127.919048 161.571429 136.904762 170.552381 147.952381 170.552381 159.004762 170.552381 167.985714 161.571429 167.985714 150.519048 167.985714 139.471429 159.004762 130.485714 147.952381 130.485714zM148.790476 102.490476C148.790476 113.542857 157.77619 122.52381 168.804762 122.52381 179.857143 122.52381 188.838095 113.542857 188.838095 102.490476 188.838095 91.4428571 179.857143 82.4571429 168.804762 82.4571429 157.77619 82.4571429 148.790476 91.4428571 148.790476 102.490476zM101.580952 118.638095C109.990476 118.638095 116.833333 111.795238 116.833333 103.385714 116.833333 94.9571429 109.990476 88.1333333 101.580952 88.1333333 93.152381 88.1333333 86.3095238 94.9761905 86.3095238 103.385714 86.3095238 111.795238 93.152381 118.638095 101.580952 118.638095zM101.580952 94.4761905C106.490476 94.4761905 110.471429 98.4571429 110.471429 103.366667 110.471429 108.27619 106.471429 112.257143 101.580952 112.257143 96.6714286 112.257143 92.6714286 108.27619 92.6714286 103.366667 92.6714286 98.4761905 96.6714286 94.4761905 101.580952 94.4761905zM238.990476 173.252381L238.990476 160.1C238.990476 160.1 231.604762 155.228571 225.314286 150.057143L225.314286 160.604762C229.838095 164.938095 234.428571 170.142857 238.990476 173.252381zM260.604762 170.347619C255.452381 168.619048 249.852381 166.5 243.752381 162.461905L243.752381 177.4C249.27619 180.728571 255.6 184.952381 260.604762 186.847619L260.604762 170.347619zM288.171429 192.761905L287.947619 176.861905C287.947619 176.861905 287.947619 176.861905 287.909524 176.861905 287.295238 176.861905 278.366667 176.747619 266.295238 172.247619L266.295238 189.119048C277.771429 192.561905 286.2 192.761905 287.928571 192.761905L288.171429 192.761905z"/>
  </g>
</svg>
