<svg width="300" height="300" viewBox="0 0 300 300">
  <path fill-rule="evenodd" d="M255.816,13 L255.816,41.8 L227.908,41.8 L227.908,13 L206.908,13 L206.908,41.8 L93.204,41.8 L93.204,13 L72.204,13 L72.204,41.8 L44.3,41.8 L44.3,13 L23,13 L23,287.22 L44,287.22 L44,258.424 L71.908,258.424 L71.908,287.22 L92.908,287.22 L92.908,258.424 L206.612,258.424 L206.612,287.22 L227.612,287.22 L227.612,258.424 L255.516,258.424 L255.516,287.22 L276.516,287.22 L276.516,13 L255.816,13 Z M255.816,238 L227.908,238 L227.908,210.096 L255.816,210.096 L255.816,238 Z M44,62.816 L71.908,62.816 L71.908,90.72 L44,90.72 L44,62.816 Z M206.612,91 L206.612,139.908 L93.204,139.908 L93.204,63.096 L206.908,63.096 L206.908,91 L206.612,91 Z M44,112 L71.908,112 L71.908,139.908 L44,139.908 L44,112 Z M44,160.908 L71.908,160.908 L71.908,188.816 L44,188.816 L44,160.908 Z M44,209.816 L71.908,209.816 L71.908,237.72 L44,237.72 L44,209.816 Z M93.204,209.816 L93.204,160.908 L206.908,160.908 L206.908,237.72 L93.204,237.72 L93.204,209.816 Z M255.816,188.816 L227.908,188.816 L227.908,160.908 L255.816,160.908 L255.816,188.816 Z M255.816,139.908 L227.908,139.908 L227.908,112 L255.816,112 L255.816,139.908 Z M255.816,91 L227.908,91 L227.908,63.096 L255.816,63.096 L255.816,91 Z"/>
</svg>
