<svg width="300" height="300" viewBox="0 0 300 300">
  <g fill-rule="evenodd">
    <path d="M178.815789 156.230909C178.815789 162.961818 173.573684 168.416364 167.078947 168.416364 160.584211 168.416364 155.3 162.961818 155.3 156.230909 155.3 149.494545 160.584211 144.04 167.078947 144.04 173.573684 144.04 178.815789 149.472727 178.815789 156.230909zM208.442105 156.230909C208.442105 132.536364 189.942105 113.314545 167.078947 113.314545 144.215789 113.314545 125.673684 132.536364 125.673684 156.230909 125.673684 179.92 144.215789 199.141818 167.078947 199.141818 189.942105 199.141818 208.442105 179.92 208.442105 156.230909zM73.6157895 206.576364C66.9157895 214.141818 67.4105263 225.945455 74.7263158 232.910909 75.1789474 233.336364 75.6526316 233.745455 76.1684211 234.127273L104.905263 256.18C112.884211 262.294545 124.131579 260.570909 130.052632 252.301818 135.973684 244.032727 134.268421 232.36 126.331579 226.245455L97.6105263 204.192727C93.4578947 201.034545 88.1947368 199.845455 83.1368421 200.930909L40.3947368 84.7 45.3684211 82.72C47.8789474 81.76 49.1105263 78.8418182 48.1631579 76.2836364L30.1315789 27.28C29.1894737 24.7 26.3947368 23.38 23.9052632 24.4054545L18.9315789 26.3636364 10.7052632 4.01090909C9.63684211 1.13636364 6.51052632-.336363636 3.69473684.776363636.9 1.86181818-.5 5.14.568421053 8.02L8.79473684 30.3890909 4.47368421 32.0745455C1.98947368 33.0945455.736842105 35.9745455 1.67894737 38.5490909L19.7105263 87.5363636C20.6368421 90.1163636 23.4315789 91.4145455 25.9421053 90.4545455L30.2578947 88.7309091 73.6157895 206.576364z"/>
    <path d="M235.663158,156.230909 C235.663158,195.498182 204.926316,227.287273 167.078947,227.287273 C129.189474,227.287273 98.4947368,195.498182 98.4947368,156.230909 C98.4947368,116.958182 129.189474,85.1690909 167.078947,85.1690909 C204.926316,85.1690909 235.663158,116.958182 235.663158,156.230909 Z M143.705263,287.374545 C213.584211,300.732727 280.710526,252.836364 293.621053,180.410909 C306.510526,107.990909 260.315789,38.4236364 190.431579,25.0654545 C133.363158,14.1345455 76.3105263,44.1563636 51.1263158,98.3363636 L86.6736842,194.985455 C91.7473684,194.941818 96.6842105,196.605455 100.773684,199.736364 L129.494737,221.767273 C139.857895,229.692727 142.015789,244.845455 134.347368,255.58 C126.678947,266.276364 112.105263,268.556364 101.763158,260.609091 L73.0421053,238.578182 C62.9894737,230.887273 60.5842105,216.356364 67.5947368,205.616364 L40.4947368,132.023636 C27.6052632,204.443636 73.8,274.010909 143.705263,287.374545 Z"/>
  </g>
</svg>
