<svg width="300" height="300" viewBox="0 0 300 300">
  <path fill-rule="evenodd" d="M260,27.5 L89.5,62.5 C84.5,63 80,67 80,72.5 L80,227 C71.5,217 59,210 45,210 C20,210 0,230 0,255 C0,280 20,300 45,300 C70,300 90,280 90,255 L90,252.5 L90,137.5 L90.5,137.5 L260,102.5 L260,196.5 C251.5,186.5 239,179.5 225,179.5 C200,179.5 180,199.5 180,224.5 C180,249.5 200,269.5 225,269.5 C250,269.5 270,249.5 270,224.5 L270,222 L270,37 C270,31.5 265.5,27.5 260,27.5 Z M45,289.5 C25.5,289.5 10,274 10,254.5 C10,235 25.5,219.5 45,219.5 C64.5,219.5 80,235 80,254.5 C80,274 64.5,289.5 45,289.5 Z M225,259.5 C205.5,259.5 190,244 190,224.5 C190,205 205.5,189.5 225,189.5 C244.5,189.5 260,205 260,224.5 C260,244 244.5,259.5 225,259.5 Z M260,87.5 L260,92.5 L90,127.5 L90,72.5 L260,37.5 L260,87.5 Z"/>
</svg>
