<svg width="300" height="300" viewBox="0 0 300 300">
  <g fill-rule="evenodd" transform="translate(13)">
    <path d="M110.378261 90.4869565C111.108696 86.5130435 110.547826 81.8608696 112.430435 80.4347826 125.269565 70.6695652 120.243478 56.9956522 120.73913 44.7347826 121.295652 30.7913043 120.873913 16.7956522 120.873913 2.8173913 122.334783 2.78695652 123.795652 2.73478261 125.256522 2.7L125.256522 20.873913C125.256522 32.2869565 125.152174 43.7 125.286957 55.1130435 125.373913 63.6869565 123.047826 72.773913 132.778261 78.873913 135.226087 80.4173913 135.021739 86.1565217 136.343478 91.0826087 167.882609 96.7391304 193.934783 112.4 210.869565 141.304348 223.778261 163.330435 227.26087 187.226087 222.773913 212.008696 214.282609 259.121739 169.091304 295.243478 121.178261 294.021739 72.926087 292.782609 29.8913043 255.995652 23.0652174 209.291304 15.573913 157.865217 43.3086957 103.921739 110.378261 90.4869565zM101.121739 211.156522L141.9 211.156522 141.9 170.652174 101.121739 170.652174 101.121739 211.156522zM184.391304 173.726087C171.773913 172.521739 160.256522 171.417391 148.317391 170.278261L148.317391 211.752174C160.6 210.547826 172.078261 209.426087 184.391304 208.23913L184.391304 173.726087zM142.613043 164.691304C141.608696 154.26087 141.217391 145.365217 139.621739 136.686957 139.182609 134.221739 135.413043 130.878261 132.865217 130.569565 125.678261 129.721739 118.256522 129.686957 111.091304 130.521739 108.456522 130.826087 104.552174 134.204348 104.126087 136.686957 102.565217 145.617391 102.243478 154.73913 101.373913 164.691304L130.282609 164.691304 142.613043 164.691304zM144.465217 252.582609C178.991304 247.317391 179.06087 250.069565 182.947826 213.656522 171.313043 214.791304 159.869565 215.930435 148.113043 217.086957 146.891304 228.956522 145.73913 240.082609 144.465217 252.582609zM62.5347826 213.63913C67.7304348 248.317391 68.3782609 248.982609 99.0130435 251.934783 97.8608696 240.182609 96.7565217 228.686957 95.5826087 216.813043 84.3391304 215.726087 73.9826087 214.743478 62.5347826 213.63913zM144.378261 132.521739C145.704348 144.021739 146.891304 154.313043 148.130435 165.047826 160.052174 166.065217 171.213043 167.034783 182.591304 168.004348 179.108696 136.26087 178.856522 135.904348 144.378261 132.521739zM99.2869565 131.791304C68.7478261 134.969565 62.1434783 142.152174 65.0826087 168.069565 75.3565217 166.982609 85.6130435 165.895652 95.7869565 164.826087 97.0086957 153.191304 98.0826087 143.13913 99.2869565 131.791304zM106.113043 124.882609L137.091304 124.882609C135.886957 103.073913 134.595652 101.034783 122.317391 101.086957 108.373913 101.156522 106.86087 103.313043 106.113043 124.882609zM56.1130435 175.613043C31.6217391 177.973913 30.4173913 179.043478 32.4043478 196.230435 33.3217391 204.143478 41.7608696 207.2 56.1130435 204.586957L56.1130435 175.613043zM212.786957 179.213043C205.317391 177.786957 198.013043 176.408696 190.404348 174.965217L190.404348 204.96087C212.634783 207.508696 215.117391 204.804348 212.786957 179.213043zM106.352174 260.021739C109.408696 283.304348 110.208696 284.373913 126.104348 282.643478 141.573913 280.978261 133.017391 267.969565 138.943478 260.021739L106.352174 260.021739zM172.621739 253.686957C142.9 256.913043 139.708696 259.613043 141 280.552174 161.734783 277.413043 165.76087 274 172.621739 253.686957zM72.6391304 131.808696C101.204348 128.769565 105.504348 124.813043 102.752174 104.295652 85.4608696 105.452174 76.1391304 115.473913 72.6391304 131.808696zM140.813043 103.717391C140.591304 125.817391 147.504348 131.369565 172.026087 129.617391 168.7 113.008696 157.830435 105.265217 140.813043 103.717391zM210.630435 208.830435C187.330435 212.73913 185.834783 214.708696 184.9 241.491304 205.195652 235.021739 210.156522 228.891304 210.630435 208.830435zM210.834783 172.53913C209.882609 155.213043 200.304348 146.652174 185.121739 143.004348 189.217391 173.047826 185.682609 169.904348 210.834783 172.53913zM48.1130435 138.347826C48.9652174 139.182609 49.8130435 140.013043 50.6434783 140.847826 62.2130435 137.773913 71.4173913 132.421739 71.8391304 115.930435 62.973913 124.304348 55.5521739 131.317391 48.1130435 138.347826zM198.608696 243.747826C183.082609 245.786957 176.852174 253.126087 177.086957 266.573913 183.608696 259.665217 190.130435 252.752174 198.608696 243.747826zM48.6086957 246.126087C55.3826087 252.804348 62.1608696 259.495652 71.2304348 268.426087 69.5652174 252.121739 62.126087 246.095652 48.6086957 246.126087zM192.086957 142.291304C193.495652 141.065217 194.886957 139.86087 196.295652 138.63913 189.96087 131.521739 183.608696 124.404348 177.26087 117.291304 175.730435 118.782609 174.2 120.278261 172.656522 121.791304 179.143478 128.634783 185.613043 135.46087 192.086957 142.291304zM133.782609 85.3434783C128.278261 82.0652174 125.304348 78.8913043 122.86087 79.2478261 120.330435 79.6173913 118.291304 83.4086957 116.034783 85.7 118.273913 87.4826087 120.465217 90.626087 122.773913 90.7086957 125.473913 90.7956522 128.26087 88.1956522 133.782609 85.3434783zM212.756522 126.086957C210.921739 112.056522 204.517391 103.856522 189.947826 102.36087 205.095652 102.273913 210.734783 93.9043478 211.465217 77.8347826 217.56087 98.4043478 217.56087 98.4043478 236.652174 102.786957 221.295652 105.382609 210.956522 109.852174 212.756522 126.086957zM48.4217391 65.8304348C46.5869565 51.8 40.1826087 43.5956522 25.6130435 42.1217391 40.7608696 42.0347826 46.4 33.6608696 47.1304348 17.5956522 53.226087 38.1608696 53.226087 38.1608696 72.3 42.5434783 56.9652174 45.126087 46.6217391 49.5913043 48.4217391 65.8304348zM24.6782609 299.543478C22.8434783 285.495652 16.4565217 277.308696 1.86956522 275.830435 17.0173913 275.747826 22.6565217 267.373913 23.3869565 251.308696 29.4826087 271.873913 29.4826087 271.873913 48.5565217 276.256522 33.2217391 278.83913 22.8956522 283.304348 24.6782609 299.543478zM247.434783 264.843478C245.6 250.8 239.2 242.613043 224.608696 241.117391 239.76087 241.034783 245.395652 232.678261 246.126087 216.591304 252.226087 237.178261 252.226087 237.178261 271.313043 241.543478 255.978261 244.156522 245.634783 248.608696 247.434783 264.843478z"/>
  </g>
</svg>
