<?xml version="1.0" encoding="utf-8"?>
<!-- Svg Vector Icons : http://www.onlinewebfonts.com/icon -->
<!DOCTYPE svg PUBLIC "-//W3C//DTD SVG 1.1//EN" "http://www.w3.org/Graphics/SVG/1.1/DTD/svg11.dtd">
<svg version="1.1" xmlns="http://www.w3.org/2000/svg" xmlns:xlink="http://www.w3.org/1999/xlink" x="0px" y="0px" viewBox="0 0 1000 1000" enable-background="new 0 0 1000 1000" xml:space="preserve">
<metadata> Svg Vector Icons : http://www.onlinewebfonts.com/icon </metadata>
<g><g><path d="M500,10C229.4,10,10,229.4,10,500c0,270.6,219.4,490,490,490c270.6,0,490-219.4,490-490C990,229.4,770.6,10,500,10z M450.5,139c0-27.3,22.2-49.5,49.5-49.5c27.3,0,49.5,22.1,49.5,49.5v340.7c0,27.3-22.1,49.5-49.5,49.5c-27.3,0-49.5-22.2-49.5-49.5L450.5,139L450.5,139z M500,861.9c-191.2,0-346.7-155.5-346.7-346.7c0-124,67-239.4,174.9-301.1c23.7-13.5,53.9-5.3,67.5,18.4c13.6,23.7,5.3,53.9-18.4,67.5c-77.1,44.1-125,126.6-125,215.2C252.3,651.8,363.4,763,500,763c136.6,0,247.8-111.1,247.8-247.8c0-88.6-47.9-171.1-125.1-215.2c-23.7-13.6-32-43.8-18.4-67.5c13.6-23.7,43.8-32,67.5-18.4c107.9,61.7,174.9,177,174.9,301.1C846.7,706.4,691.2,861.9,500,861.9z"/></g><g></g><g></g><g></g><g></g><g></g><g></g><g></g><g></g><g></g><g></g><g></g><g></g><g></g><g></g><g></g></g>
</svg>