<svg width="300" height="300" viewBox="0 0 300 300">
  <g fill-rule="evenodd">
    <polygon points="150 0 0 62.5 0 75 150 25 300 75 300 62.5"/>
    <polygon points="37.5 175 12.5 175 12.5 300 37.5 300 37.5 275 262.5 275 262.5 300 287.5 300 287.5 250 37.5 250"/>
    <path d="M87.5,181.248 C87.5,206.248 50,206.248 50,181.248 C50,156.248 87.5,156.248 87.5,181.248"/>
    <path d="M100 187.5L100 212.5 75 212.5C68.092 212.5 62.5 218.092 62.5 225 62.5 231.908 68.092 237.5 75 237.5L262.5 237.5 262.5 218.752C262.5 208.436 252.156 195.58 239.532 190.156L198 172.36C185.36 166.936 163.78 162.516 150.032 162.516L125.032 162.516C111.248 162.5 100 173.752 100 187.5zM112.5 100C112.5 120.704 129.28 137.5 150 137.5 168.42 137.5 183.672 124.188 186.828 106.656 181.72 110.296 175.5 112.5 168.752 112.5 151.484 112.5 137.5 98.5 137.5 81.248 137.5 74.5 139.704 68.28 143.344 63.172 125.812 66.328 112.5 81.58 112.5 100z"/>
  </g>
</svg>
