<svg width="300" height="300" viewBox="0 0 300 300">
  <path fill-rule="evenodd" d="M63.28,85.296 C62.796,89.672 62.5,94.748 62.5,99.888 C62.5,175.888 124.108,237.5 200.108,237.5 C205.248,237.5 210.312,237.216 215.296,236.672 C194.828,260.388 165.248,275.312 132.172,275.312 C72.796,275.312 24.672,227.188 24.672,167.812 C24.672,134.732 39.608,105.156 63.092,85.436 L63.28,85.296 Z M106.42,37.592 C45.296,50.188 0,103.56 0,167.5 C0,240.672 59.328,300 132.5,300 C196.452,300 249.812,254.704 262.264,194.436 C244.892,205.388 223.296,212.42 200.08,212.42 C137.936,212.42 87.58,162.06 87.58,99.92 C87.58,76.704 94.608,55.108 106.672,37.188 L106.42,37.592 Z"/>
</svg>
