<svg width="300" height="300" viewBox="0 0 300 300">
  <g fill-rule="evenodd" transform="translate(26)">
    <path d="M244.904348,40.6434783 C217.969565,16.5434783 183.221739,3.26086957 147.078261,3.26086957 C66.1695652,3.26086957 0.339130435,69.0913043 0.339130435,150 C0.339130435,230.908696 66.1695652,296.73913 147.078261,296.73913 C180.534783,296.73913 212.091304,285.734783 238.282609,264.913043 C241.1,262.669565 242,258.782609 240.43913,255.534783 C238.873913,252.291304 235.273913,250.543478 231.778261,251.343478 C224.33913,253.021739 216.76087,253.873913 209.273913,253.873913 C159.934783,253.873913 117.730435,218.7 108.9,170.26087 C108.134783,166.065217 104.108696,163.3 99.9130435,164.043478 C95.7217391,164.808696 92.9347826,168.834783 93.7,173.030435 C103.447826,226.578261 148.608696,266.034783 202.430435,269.121739 C185.273913,277.156522 166.526087,281.317391 147.078261,281.317391 C74.6782609,281.317391 15.7956522,222.417391 15.7956522,150.034783 C15.7956522,77.6304348 74.6956522,18.7173913 147.078261,18.7173913 C168.969565,18.7173913 190.286957,24.1521739 209.23913,34.3565217 C175.713043,34.373913 143.717391,48.7434783 121.434783,73.8130435 C118.613043,77.0043478 118.886957,81.8782609 122.078261,84.7130435 C125.256522,87.5521739 130.147826,87.2608696 132.982609,84.0695652 C152.343478,62.2782609 180.147826,49.7956522 209.273913,49.7956522 C218.817391,49.7956522 228.36087,51.1565217 237.6,53.8217391 C241.065217,54.8217391 244.752174,53.2956522 246.5,50.1347826 C248.252174,46.9956522 247.586957,43.0521739 244.904348,40.6434783 Z"/>
    <path d="M127.6 179.652174C128.786957 182.53913 131.608696 184.426087 134.730435 184.426087L177.991304 184.426087C182.252174 184.426087 185.717391 180.96087 185.717391 176.7 185.717391 172.434783 182.252174 168.986957 177.991304 168.986957L153.378261 168.986957 180.347826 142.017391C182.556522 139.808696 183.221739 136.482609 182.030435 133.595652 180.843478 130.704348 178.021739 128.821739 174.9 128.821739L134.713043 128.821739C130.452174 128.821739 127.004348 132.286957 127.004348 136.547826 127.004348 140.813043 130.469565 144.278261 134.713043 144.278261L156.234783 144.278261 129.26087 171.247826C127.056522 173.456522 126.391304 176.765217 127.6 179.652174zM236.669565 192.578261L218.256522 192.578261 239.486957 171.347826C241.695652 169.13913 242.356522 165.813043 241.152174 162.926087 239.96087 160.03913 237.143478 158.152174 234.017391 158.152174L199.608696 158.152174C195.347826 158.152174 191.882609 161.617391 191.882609 165.878261 191.882609 170.143478 195.347826 173.608696 199.608696 173.608696L215.386957 173.608696 194.156522 194.852174C191.947826 197.06087 191.286957 200.373913 192.478261 203.26087 193.665217 206.147826 196.482609 208.034783 199.608696 208.034783L236.686957 208.034783C240.947826 208.034783 244.413043 204.569565 244.413043 200.304348 244.413043 196.043478 240.930435 192.578261 236.669565 192.578261zM50.3565217 151.852174C51.5434783 154.73913 54.3652174 156.621739 57.4913043 156.621739L116.186957 156.621739C120.465217 156.621739 123.913043 153.16087 123.913043 148.895652 123.913043 144.634783 120.447826 141.169565 116.186957 141.169565L76.1391304 141.169565 117.46087 99.8478261C119.665217 97.6391304 120.330435 94.3086957 119.121739 91.4217391 117.934783 88.5347826 115.117391 86.6521739 111.991304 86.6521739L57.4913043 86.6521739C53.226087 86.6521739 49.7782609 90.1173913 49.7782609 94.3782609 49.7782609 98.6434783 53.2434783 102.104348 57.4913043 102.104348L93.3434783 102.104348 52.0391304 143.443478C49.8304348 145.634783 49.1695652 148.965217 50.3565217 151.852174z"/>
  </g>
</svg>
