<?xml version="1.0" encoding="utf-8"?>
<!-- Svg Vector Icons : http://www.onlinewebfonts.com/icon -->
<!DOCTYPE svg PUBLIC "-//W3C//DTD SVG 1.1//EN" "http://www.w3.org/Graphics/SVG/1.1/DTD/svg11.dtd">
<svg version="1.1" xmlns="http://www.w3.org/2000/svg" xmlns:xlink="http://www.w3.org/1999/xlink" x="0px" y="0px" viewBox="0 0 1000 1000" enable-background="new 0 0 1000 1000" xml:space="preserve">
<metadata> Svg Vector Icons : http://www.onlinewebfonts.com/icon </metadata>
<g><path d="M802.4,793.9c-251.2,0-454.9-203.7-454.9-454.9c0-129.4,54-246.1,140.7-329C229.2,23.2,23.3,237.4,23.3,499.7C23.3,770.5,242.8,990,513.6,990c166.8,0,314.1-83.3,402.7-210.5C879.9,788.9,841.7,793.9,802.4,793.9z"/><path d="M860.4,31.4l35.9,72.8l80.3,11.7l-58.1,56.7l13.7,80l-71.9-37.8l-71.9,37.8l13.7-80l-58.1-56.7l80.3-11.7L860.4,31.4z"/><path d="M589.4,255.4l27.7,56.1l61.9,9l-44.8,43.7l10.6,61.7l-55.4-29.1L534,425.9l10.6-61.7l-44.8-43.7l61.9-9L589.4,255.4z"/><path d="M806,476l27.7,56.1l61.9,9l-44.8,43.7l10.6,61.7L806,617.4l-55.4,29.1l10.6-61.7l-44.8-43.7l61.9-9L806,476z"/></g>
</svg>