<svg width="300" height="300" viewBox="0 0 300 300">
  <g fill-rule="evenodd">
    <path d="M175,162.5 C168.108,162.5 162.5,156.908 162.5,150 C162.5,143.092 168.108,137.5 175,137.5 C181.908,137.5 187.5,143.092 187.5,150 C187.5,156.908 181.908,162.5 175,162.5 M125,162.5 C118.108,162.5 112.5,156.908 112.5,150 C112.5,143.092 118.108,137.5 125,137.5 C131.908,137.5 137.5,143.092 137.5,150 C137.5,156.908 131.908,162.5 125,162.5 M150,87.5 C115.548,87.5 87.5,115.532 87.5,150 C87.5,184.468 115.548,212.5 150,212.5 C184.468,212.5 212.5,184.468 212.5,150 C212.5,115.532 184.468,87.5 150,87.5"/>
    <path d="M150,237.5 C101.764,237.5 62.5,198.248 62.5,150 C62.5,101.752 101.764,62.5 150,62.5 C198.248,62.5 237.5,101.752 237.5,150 C237.5,198.248 198.248,237.5 150,237.5 M262.5,0 L37.5,0 C16.828,0 0,16.828 0,37.5 L0,262.5 C0,283.172 16.828,300 37.5,300 L262.5,300 C283.188,300 300,283.172 300,262.5 L300,37.5 C300,16.828 283.188,0 262.5,0"/>
  </g>
</svg>
