<?xml version="1.0" encoding="UTF-8"?>
<svg width="512px" height="512px" viewBox="0 0 512 512" version="1.1" xmlns="http://www.w3.org/2000/svg" xmlns:xlink="http://www.w3.org/1999/xlink">
    <!-- Generator: Sketch 41.2 (35397) - http://www.bohemiancoding.com/sketch -->
    <title>Artboard</title>
    <desc>Created with Sketch.</desc>
    <defs></defs>
    <g id="Page-1" stroke="none" stroke-width="1" fill="none" fill-rule="evenodd">
        <g id="Artboard">
            <g id="Power_socket_icon" transform="translate(87.000000, 86.000000)">
                <g id="layer1" transform="translate(0.000000, 0.158117)">
                    <rect id="rect3864" stroke="#FFAB40" stroke-width="10" fill="#FFFFFF" x="0.0718137872" y="0.555253438" width="338.85638" height="339.213635"></rect>
                    <path d="M266.322336,170.162138 C266.32751,204.793351 247.874409,236.796128 217.915348,254.113229 C187.956287,271.430331 151.043709,271.430331 121.084648,254.113229 C91.1255877,236.796128 72.6724862,204.793351 72.6776606,170.162138 C72.6724862,135.530925 91.1255877,103.528148 121.084648,86.2110464 C151.043709,68.8939444 187.956287,68.8939444 217.915348,86.2110464 C247.874409,103.528148 266.32751,135.530925 266.322336,170.162138 L266.322336,170.162138 Z" id="path4374" stroke="#FFAB40" stroke-width="10.1062504" fill="#FFFFFF"></path>
                    <path d="M140.029978,181.969408 C135.818568,184.405689 130.628203,184.405689 126.416792,181.969408 C122.205381,179.533127 119.613811,175.031315 119.619672,170.162144 C119.613811,165.292973 122.205381,160.791161 126.416792,158.35488 C130.628203,155.918599 135.818568,155.918599 140.029978,158.35488 C144.241389,160.791161 146.83296,165.292973 146.827099,170.162144 C146.83296,175.031315 144.241389,179.533127 140.029978,181.969408 Z" id="path4376" fill="#FFAB40"></path>
                    <path d="M219.38029,170.162144 C219.386151,175.031315 216.794581,179.533127 212.58317,181.969408 C208.371759,184.405689 203.181394,184.405689 198.969984,181.969408 C194.758573,179.533127 192.167002,175.031315 192.172863,170.162144 C192.167002,165.292973 194.758573,160.791161 198.969984,158.35488 C203.181394,155.918599 208.371759,155.918599 212.58317,158.35488 C216.794581,160.791161 219.386151,165.292973 219.38029,170.162144 L219.38029,170.162144 Z" id="path4376-4" fill="#FFAB40"></path>
                    <rect id="rect4396" fill="#FFAB40" x="162.244681" y="70.2963098" width="14.5106383" height="32.6833579"></rect>
                    <rect id="rect4396-9" fill="#FFAB40" x="162.244681" y="237.344583" width="14.5106383" height="32.6833579"></rect>
                </g>
            </g>
        </g>
    </g>
</svg>