<svg width="300" height="300" viewBox="0 0 300 300">
  <g fill-rule="evenodd" transform="translate(35)">
    <path d="M204.887045,3.26080178 L25.5429473,3.26080178 C12.0562711,3.26080178 1.08693393,14.230139 1.08693393,27.7168152 L1.08693393,272.276949 C1.08693393,285.763625 12.0562711,296.732962 25.5429473,296.732962 L204.887045,296.732962 C218.373722,296.732962 229.343059,285.763625 229.343059,272.276949 L229.343059,27.7168152 C229.343059,14.230139 218.373722,3.26080178 204.887045,3.26080178 Z M213.03905,272.276949 C213.03905,276.776855 209.386952,280.428953 204.887045,280.428953 L25.5429473,280.428953 C21.0430408,280.428953 17.3909428,276.776855 17.3909428,272.276949 L17.3909428,27.7168152 C17.3909428,23.2169087 21.0430408,19.5648107 25.5429473,19.5648107 L204.887045,19.5648107 C209.386952,19.5648107 213.03905,23.2169087 213.03905,27.7168152 L213.03905,272.276949 Z"/>
    <path d="M115.214996 117.388864C74.7593155 117.388864 41.8469562 150.301224 41.8469562 190.756904 41.8469562 231.212585 74.7593155 264.124944 115.214996 264.124944 155.670677 264.124944 188.583036 231.212585 188.583036 190.756904 188.583036 150.301224 155.670677 117.388864 115.214996 117.388864zM115.214996 247.820936C83.7460853 247.820936 58.1509651 222.225815 58.1509651 190.756904 58.1509651 159.287993 83.7460853 133.692873 115.214996 133.692873 146.683907 133.692873 172.279028 159.287993 172.279028 190.756904 172.279028 222.225815 146.683907 247.820936 115.214996 247.820936zM115.214996 101.084855C133.201579 101.084855 147.823014 86.4634201 147.823014 68.4768374 147.823014 50.4902548 133.201579 35.8688196 115.214996 35.8688196 97.2284137 35.8688196 82.6069785 50.4902548 82.6069785 68.4768374 82.6069785 86.4634201 97.2284137 101.084855 115.214996 101.084855zM115.214996 52.1728285C124.197418 52.1728285 131.519005 59.4944155 131.519005 68.4768374 131.519005 77.4592594 124.197418 84.7808464 115.214996 84.7808464 106.232574 84.7808464 98.9109874 77.4592594 98.9109874 68.4768374 98.9109874 59.4944155 106.232574 52.1728285 115.214996 52.1728285z"/>
    <path d="M115.214996 174.452895C106.232574 174.452895 98.9109874 181.774482 98.9109874 190.756904 98.9109874 199.739326 106.232574 207.060913 115.214996 207.060913 124.197418 207.060913 131.519005 199.739326 131.519005 190.756904 131.519005 181.774482 124.197418 174.452895 115.214996 174.452895zM49.9989607 44.0208241C49.9989607 54.8901633 33.6949518 54.8901633 33.6949518 44.0208241 33.6949518 33.1514848 49.9989607 33.1514848 49.9989607 44.0208241M196.735041 44.0208241C196.735041 54.8901633 180.431032 54.8901633 180.431032 44.0208241 180.431032 33.1514848 196.735041 33.1514848 196.735041 44.0208241M196.735041 255.97294C196.735041 266.842279 180.431032 266.842279 180.431032 255.97294 180.431032 245.103601 196.735041 245.103601 196.735041 255.97294M49.9989607 255.97294C49.9989607 266.842279 33.6949518 266.842279 33.6949518 255.97294 33.6949518 245.103601 49.9989607 245.103601 49.9989607 255.97294"/>
  </g>
</svg>
