<svg width="300" height="300" viewBox="0 0 300 300">
  <path fill-rule="evenodd" d="M295.730383,184.878627 C296.72346,183.888821 297.523666,182.755861 298.163832,181.475658 C307.573438,162.673431 280.050442,113.285378 233.195282,66.5845259 C186.356536,19.8877636 136.792985,-7.54868035 117.945047,1.82993713 C116.307702,3.15922221 114.703185,4.53349847 113.119187,5.95276592 C111.3218,7.55199812 109.561346,9.21258194 107.829618,10.9386075 C71.9065073,46.7270519 61.085255,97.9352031 75.4807624,142.492839 C74.0691163,143.196337 72.7559571,144.108432 71.6028392,145.274112 L50.4076296,166.39543 C46.2916963,170.501898 44.252196,177.082882 44.7364234,183.168962 C44.3999264,183.45936 44.0634293,183.745667 43.7392432,184.048335 L21.4935062,206.224901 C15.9454087,211.754727 13.9264265,221.832753 16.7004752,229.231758 L4.67686162,241.232134 C-1.15848943,247.048268 -1.58936978,256.103767 3.70019949,261.375916 C8.98976875,266.652155 18.0792924,266.218604 23.9105398,260.40247 L28.9785134,255.355277 C32.6963953,261.298204 39.0775281,267.543799 44.990848,270.930408 L39.7341077,276.173926 C33.8987567,281.99006 33.4678763,291.045559 38.7574456,296.317708 C44.0470149,301.589857 53.1365385,301.144035 58.9677859,295.344262 L71.2499277,283.106659 C78.5748937,285.536184 88.2389244,283.50749 93.6269806,278.137178 L115.876821,255.960613 C116.196904,255.641585 116.500572,255.289835 116.787825,254.954447 C122.881705,255.46571 129.468019,253.437016 133.588055,249.330548 L154.779161,228.209231 C156.030766,226.961748 156.991014,225.54248 157.713252,224.02505 C202.258073,238.05003 253.315342,227.186704 289.045583,191.557774 C290.777311,189.831748 292.426967,188.077092 294.047898,186.285625 C294.63882,185.856163 295.217431,185.389891 295.730383,184.878627 Z M124.084066,15.7158535 C139.214122,9.00398644 181.998489,34.6489632 223.625634,76.139018 C265.256884,117.633163 290.982492,160.276628 284.252552,175.356856 C283.243061,176.63706 282.184326,177.896813 281.092762,179.127936 C267.357938,188.236606 223.145511,162.288961 180.172377,119.453261 C137.19514,76.6052903 111.161759,32.5548279 120.300526,18.8488762 C121.531613,17.7609075 122.799632,16.7220201 124.084066,15.7158535 Z"/>
</svg>
