<svg width="300" height="300" viewBox="0 0 300 300">
  <g fill-rule="evenodd" transform="translate(86)">
    <path d="M87.5 3.21904762C86.7952381 1.43333333 84.6333333.352380952 82.847619.352380952L45.347619.352380952C43.2095238.352380952 41.4238095 1.43333333 40.7 3.21904762L1.78571429 82.1428571C-2.88657986e-15 85.7142857 2.49047619 89.6380952 6.43809524 89.6380952L121.8 89.6380952C125.72381 89.6380952 128.238095 85.7142857 126.452381 82.1428571L87.5 3.21904762zM103.219048 283.928571L78.2190476 283.928571C75.352381 283.928571 72.8619048 281.438095 72.8619048 278.571429L72.8619048 100.352381C72.8619048 97.4904762 70.3666667 94.9952381 67.5047619 94.9952381L62.147619 94.9952381C59.2809524 94.9952381 56.7904762 97.4904762 56.7904762 100.352381L56.7904762 278.571429C56.7904762 281.438095 54.2952381 283.928571 51.4333333 283.928571L26.4333333 283.928571C25 283.928571 23.2142857 284.633333 22.5095238 285.714286 17.152381 292.152381 21.8 299.647619 28.2190476 299.647619L101.433333 299.647619C107.866667 299.647619 112.147619 292.504762 107.142857 285.714286 106.061905 284.633333 104.652381 283.928571 103.219048 283.928571z"/>
  </g>
</svg>
