<?xml version="1.0" encoding="utf-8"?>
<!-- Svg Vector Icons : http://www.onlinewebfonts.com/icon -->
<!DOCTYPE svg PUBLIC "-//W3C//DTD SVG 1.1//EN" "http://www.w3.org/Graphics/SVG/1.1/DTD/svg11.dtd">
<svg version="1.1" xmlns="http://www.w3.org/2000/svg" xmlns:xlink="http://www.w3.org/1999/xlink" x="0px" y="0px" viewBox="0 0 1000 1000" enable-background="new 0 0 1000 1000" xml:space="preserve">
<metadata> Svg Vector Icons : http://www.onlinewebfonts.com/icon </metadata>
<g><g transform="translate(0.000000,512.000000) scale(0.100000,-0.100000)"><path d="M2143.4,4989.5c-153.3-53.7-268.3-162.9-360.3-343.1c-115-228.1-107.3,70.9-107.3-4596.3c0-4462.1-1.9-4366.3,76.7-4513.9c59.4-115,141.8-193.6,264.5-253l128.4-63.2h2827.2h2827.2l128.4,63.2C8079.5-4642,8162-4550,8254-4356.4l63.2,132.3L8323,50.1c3.8,3137.7,0,4305-17.2,4389.3c-46,247.3-164.9,415.9-358.4,511.8l-128.4,63.2l-2788.8,3.8C2400.3,5022.1,2235.5,5022.1,2143.4,4989.5z M5171.9,4096.3c226.2-132.3,224.3-467.7-3.8-599.9c-113.1-67.1-274.1-57.5-377.6,21.1c-268.3,205.1-128.4,624.9,208.9,624.9C5064.6,4142.3,5118.2,4128.9,5171.9,4096.3z M5873.4,299.3V-1627h-872.1h-872.1V299.3v1926.3h872.1h872.1V299.3z M5160.4-2905.4c78.6-38.3,147.6-126.5,174.4-226.2c51.8-197.4-92-400.6-300.9-425.5c-304.8-34.5-506,333.5-306.7,561.6C4849.9-2857.5,4991.7-2826.8,5160.4-2905.4z"/><path d="M4474.2,903.1V-55.3h527.1h527.1v958.4v958.4h-527.1h-527.1V903.1z"/></g></g>
</svg>