<svg width="300" height="300" viewBox="0 0 300 300">
  <g fill-rule="evenodd" transform="translate(89)">
    <path d="M60.4914894,295.538298 C28.8957447,295.538298 3.04468085,269.680851 3.04468085,238.091489 C3.04468085,224.202128 6.88085106,211.289362 14.5340426,202.187234 C19.3212766,196.448936 27.4531915,195.478723 33.2106383,199.793617 C38.9489362,204.580851 39.9191489,212.706383 35.6042553,218.470213 C31.7680851,223.257447 29.8723404,229.959574 29.8723404,237.619149 C29.8723404,254.374468 43.2829787,267.785106 60.0382979,267.785106 C76.793617,267.785106 90.2106383,254.374468 90.2106383,237.619149 C90.2106383,232.831915 87.8170213,225.651064 83.9744681,219.414894 C80.1382979,213.178723 81.5808511,205.053191 87.8170213,200.738298 C94.0468085,196.902128 102.178723,198.344681 106.493617,204.580851 C109.831915,209.368085 117.012766,222.778723 117.012766,237.140426 C117.434043,270.153191 92.0808511,295.538298 60.4914894,295.538298 Z"/>
    <path d="M60.4914894 254.846809C52.8319149 254.846809 47.0744681 248.610638 47.0744681 241.429787L47.0744681 134.693617C47.0744681 127.034043 53.3106383 121.276596 60.4914894 121.276596 68.1446809 121.276596 73.9021277 127.512766 73.9021277 134.693617L73.9021277 241.455319C73.8765957 248.610638 67.6723404 254.846809 60.4914894 254.846809zM95.4191489 224.202128C87.7659574 224.202128 82.0085106 217.965957 82.0085106 210.785106L82.0085106 58.5702128C82.0085106 50.9170213 88.2382979 45.1531915 95.4191489 45.1531915 102.6 45.1531915 108.83617 51.3893617 108.83617 58.5702128L108.83617 210.810638C108.83617 217.965957 103.07234 224.202128 95.4191489 224.202128zM25.0595745 224.202128C17.406383 224.202128 11.6425532 217.965957 11.6425532 210.785106L11.6425532 58.5702128C11.6425532 50.9170213 17.8787234 45.1531915 25.0595745 45.1531915 32.2404255 45.1531915 38.4702128 51.3893617 38.4702128 58.5702128L38.4702128 210.810638C38.4446809 217.965957 32.2404255 224.202128 25.0595745 224.202128z"/>
    <path d="M95.4191489,68.1446809 C87.7659574,68.1446809 82.0085106,61.9085106 82.0085106,54.7276596 C82.0085106,42.287234 71.9553191,31.2638298 59.987234,31.2638298 C48.0191489,31.2638298 37.9723404,41.7893617 37.9723404,54.7276596 C37.9723404,62.3808511 31.7425532,68.1446809 24.5617021,68.1446809 C17.3808511,68.1446809 11.1446809,61.9085106 11.1446809,54.7276596 C11.1446809,26.9553191 33.1595745,4.46170213 59.9680851,4.46170213 C86.7702128,4.46170213 108.785106,26.9553191 108.785106,54.7276596 C108.83617,61.9085106 103.07234,68.1446809 95.4191489,68.1446809 Z"/>
  </g>
</svg>
