<svg width="300" height="300" viewBox="0 0 300 300">
  <path fill-rule="evenodd" d="M150,15 C75.452,15 15,75.452 15,150 C15,224.548 75.452,285 150,285 C224.548,285 285,224.548 285,150 C285,75.452 224.548,15 150,15 Z M150,15.876 C224.08,15.876 284.124,75.92 284.124,150 C284.124,224.08 224.08,284.124 150,284.124 C75.92,284.124 15.876,224.08 15.876,150 C15.876,75.92 75.92,15.876 150,15.876 Z M150,26.14 L150,26.14 C81.592,26.14 26.14,81.592 26.14,150 C26.14,218.408 81.592,273.86 150,273.86 C218.408,273.86 273.86,218.408 273.86,150 C273.86,81.592 218.408,26.14 150,26.14 Z M147.484,81.08 L151.704,81.08 L151.048,101 L148.14,101 L147.484,81.08 Z M145.28,81.22 L146.236,94.968 L145.36,95.032 L144.408,81.28 L145.28,81.22 Z M153.908,81.22 L154.78,81.28 L153.812,95.032 L152.936,94.968 L153.908,81.22 Z M142.908,81.408 L144.36,95.108 L143.484,95.204 L142.048,81.5 L142.908,81.408 Z M156.28,81.408 L157.14,81.5 L155.704,95.204 L154.828,95.108 L156.28,81.408 Z M140.548,81.688 L142.468,95.344 L141.608,95.452 L139.704,81.812 L140.564,81.688 L140.548,81.688 Z M158.64,81.688 L159.5,81.812 L157.58,95.452 L156.72,95.344 L158.64,81.688 Z M138.204,82.048 L140.592,95.624 L139.736,95.78 L137.344,82.204 L138.204,82.064 L138.204,82.048 Z M161,82.048 L161.86,82.188 L159.468,95.764 L158.608,95.608 L161.016,82.032 L161,82.048 Z M135.876,82.484 L138.736,95.968 L137.876,96.156 L135.016,82.672 L135.876,82.484 Z M163.328,82.484 L164.188,82.672 L161.328,96.156 L160.468,95.968 L163.344,82.484 L163.328,82.484 Z M133.548,83 L136.876,96.376 L136.032,96.58 L132.688,83.204 L133.548,82.984 L133.548,83 Z M165.64,83 L166.484,83.22 L163.156,96.592 L162.312,96.392 L165.64,83.016 L165.64,83 Z M131.248,83.608 L135.048,96.86 L134.204,97.092 L130.408,83.844 L131.248,83.608 Z M167.952,83.608 L168.796,83.844 L165,97.092 L164.156,96.86 L167.952,83.608 Z M128.984,84.296 L133.248,97.408 L132.408,97.672 L128.14,84.58 L128.984,84.296 Z M170.236,84.296 L171.064,84.58 L166.796,97.672 L165.968,97.408 L170.236,84.296 Z M126.736,85.064 L131.452,98.016 L130.624,98.312 L125.92,85.36 L126.736,85.064 Z M172.484,85.064 L173.312,85.36 L168.592,98.312 L167.78,98.016 L172.484,85.064 Z M124.5,85.892 L129.656,98.672 L128.86,99 L123.688,86.22 L124.5,85.892 Z M174.704,85.892 L175.516,86.22 L170.36,99 L169.548,98.672 L174.72,85.892 L174.704,85.892 Z M122.312,86.812 L127.92,99.408 L127.124,99.764 L121.516,87.172 L122.312,86.812 Z M176.892,86.812 L177.688,87.172 L172.08,99.764 L171.28,99.408 L176.876,86.812 L176.892,86.812 Z M120.14,87.796 L126.188,100.188 L125.408,100.58 L119.36,88.188 L120.14,87.796 Z M179.064,87.796 L179.844,88.188 L173.796,100.58 L173.016,100.188 L179.064,87.796 Z M118.016,88.86 L124.484,101.032 L123.704,101.436 L117.236,89.264 L118.016,88.86 Z M181.188,88.86 L181.952,89.264 L175.484,101.436 L174.704,101.032 L181.172,88.86 L181.188,88.86 Z M115.936,90 L122.828,101.936 L122.064,102.376 L115.172,90.436 L115.936,90 Z M183.264,90 L184.032,90.436 L177.14,102.376 L176.392,101.936 L183.28,90 L183.264,90 Z M113.892,91.22 L121.188,102.908 L120.452,103.376 L113.14,91.688 L113.892,91.22 Z M185.328,91.22 L186.064,91.688 L178.752,103.376 L178.016,102.908 L185.328,91.22 Z M111.892,92.5 L119.592,103.92 L118.876,104.408 L111.172,92.984 L111.892,92.5 Z M187.328,92.5 L188.048,92.984 L180.344,104.408 L179.624,103.92 L187.344,92.5 L187.328,92.5 Z M109.936,93.86 L118.032,105.016 L117.312,105.532 L109.22,94.376 L109.936,93.86 Z M189.28,93.86 L189.984,94.376 L181.892,105.532 L181.172,105.016 L189.28,93.86 Z M108.032,95.28 L116.516,106.14 L115.828,106.688 L107.328,95.828 L108.016,95.28 L108.032,95.28 Z M191.188,95.28 L191.876,95.828 L183.392,106.688 L182.704,106.14 L191.188,95.28 Z M106.172,96.764 L115.032,107.328 L114.36,107.892 L105.5,97.328 L106.172,96.764 Z M193.032,96.764 L193.704,97.328 L184.844,107.892 L184.172,107.328 L193.032,96.764 Z M104.36,98.312 L113.592,108.548 L112.936,109.124 L103.72,98.892 L104.376,98.312 L104.36,98.312 Z M194.844,98.312 L195.5,98.892 L186.264,109.124 L185.608,108.548 L194.844,98.312 Z M102.608,99.92 L112.188,109.844 L111.548,110.452 L101.968,100.532 L102.592,99.92 L102.608,99.92 Z M196.592,99.92 L197.22,100.532 L187.64,110.452 L187.016,109.844 L196.592,99.92 Z M100.92,101.592 L110.844,111.156 L110.236,111.796 L100.312,102.22 L100.92,101.592 Z M198.28,101.592 L198.892,102.22 L188.968,111.796 L188.36,111.156 L198.28,101.592 Z M99.296,103.312 L109.548,112.532 L108.952,113.188 L98.72,103.968 L99.296,103.312 Z M199.908,103.312 L200.5,103.968 L190.264,113.188 L189.672,112.532 L199.908,103.312 Z M97.72,105.092 L108.28,113.952 L107.72,114.624 L97.156,105.764 L97.72,105.092 Z M201.484,105.092 L202.048,105.764 L191.484,114.624 L190.92,113.952 L201.484,105.092 Z M96.204,106.936 L107.064,115.42 L106.516,116.108 L95.656,107.624 L96.188,106.936 L96.204,106.936 Z M202.984,106.936 L203.532,107.624 L192.656,116.108 L192.124,115.42 L202.984,106.936 Z M94.764,108.828 L105.92,116.92 L105.408,117.624 L94.248,109.516 L94.764,108.812 L94.764,108.828 Z M204.436,108.828 L204.952,109.532 L193.796,117.64 L193.28,116.936 L204.436,108.844 L204.436,108.828 Z M93.392,110.764 L104.812,118.468 L104.328,119.204 L92.908,111.484 L93.392,110.764 Z M205.812,110.764 L206.296,111.484 L194.876,119.204 L194.392,118.468 L205.812,110.764 Z M92.08,112.752 L103.764,120.048 L103.296,120.796 L91.608,113.484 L92.08,112.736 L92.08,112.752 Z M207.108,112.752 L207.58,113.5 L195.892,120.812 L195.42,120.064 L207.108,112.764 L207.108,112.752 Z M90.844,114.78 L102.78,121.672 L102.344,122.42 L90.408,115.532 L90.844,114.764 L90.844,114.78 Z M208.344,114.78 L208.78,115.548 L196.844,122.436 L196.408,121.688 L208.344,114.796 L208.344,114.78 Z M89.672,116.844 L101.844,123.328 L101.436,124.108 L89.264,117.624 L89.672,116.86 L89.672,116.844 Z M209.5,116.844 L209.92,117.608 L197.752,124.092 L197.344,123.312 L209.516,116.828 L209.5,116.844 Z M88.564,118.952 L100.952,124.984 L100.564,125.78 L88.172,119.736 L88.564,118.952 Z M210.58,118.952 L210.968,119.736 L198.58,125.78 L198.188,124.984 L210.58,118.952 Z M176.392,120.608 C177.58,168.688 142.656,175.592 125.548,161.984 C131.516,154.812 138.188,149.72 147.312,146.376 C153.876,143.984 159.796,142.78 165.908,135.752 C156.984,141.812 149.796,142.264 144.5,143.936 C136.608,146.42 130.376,149.764 123.672,157.672 C123.032,147.72 126.564,139.892 130.704,135.344 C134.844,130.796 140.436,128.624 148.752,127.124 C157.048,125.624 168.908,128.328 176.42,120.592 L176.392,120.608 Z M87.548,121.092 L100.14,126.704 L99.78,127.5 L87.188,121.892 L87.548,121.092 Z M211.608,121.092 L211.968,121.892 L199.376,127.5 L199.016,126.704 L211.608,121.092 Z M86.608,123.28 L99.392,128.436 L99.064,129.248 L86.28,124.092 L86.608,123.28 Z M212.548,123.28 L212.876,124.092 L200.092,129.248 L199.764,128.436 L212.548,123.28 Z M85.736,125.484 L98.688,130.204 L98.392,131.016 L85.436,126.312 L85.736,125.484 Z M213.42,125.484 L213.72,126.312 L200.764,131.016 L200.452,130.204 L213.42,125.484 Z M84.952,127.736 L98.064,132 L97.796,132.828 L84.688,128.564 L84.952,127.736 Z M214.204,127.736 L214.484,128.564 L201.376,132.828 L201.092,132 L214.204,127.736 Z M84.236,130 L97.5,133.796 L97.248,134.64 L84,130.844 L84.236,130 Z M214.92,130 L215.156,130.844 L201.908,134.64 L201.672,133.796 L214.92,130 Z M83.608,132.296 L96.984,135.624 L96.78,136.468 L83.408,133.14 L83.608,132.296 Z M215.548,132.296 L215.752,133.14 L202.36,136.468 L202.156,135.624 L215.548,132.296 Z M83.064,134.608 L96.548,137.484 L96.36,138.344 L82.876,135.468 L83.064,134.608 Z M216.092,134.608 L216.28,135.468 L202.796,138.344 L202.608,137.484 L216.092,134.608 Z M82.592,136.936 L96.172,139.328 L96.016,140.188 L82.436,137.796 L82.58,136.936 L82.592,136.936 Z M216.564,136.936 L216.72,137.796 L203.14,140.188 L202.984,139.328 L216.564,136.936 Z M82.204,139.28 L95.86,141.204 L95.736,142.08 L82.08,140.156 L82.204,139.28 Z M216.952,139.28 L217.08,140.156 L203.42,142.08 L203.296,141.204 L216.952,139.28 Z M81.908,141.64 L95.608,143.092 L95.516,143.952 L81.796,142.516 L81.908,141.64 Z M217.248,141.64 L217.344,142.516 L203.64,143.952 L203.548,143.092 L217.248,141.64 Z M81.672,144.016 L95.42,144.968 L95.376,145.844 L81.608,144.892 L81.672,144.016 Z M217.468,144.016 L217.532,144.892 L203.78,145.844 L203.72,144.968 L217.468,144.016 Z M81.532,146.392 L95.296,146.876 L95.264,147.752 L81.484,147.28 L81.516,146.408 L81.532,146.392 Z M217.608,146.392 L217.64,147.264 L203.86,147.736 L203.828,146.86 L217.608,146.376 L217.608,146.392 Z M81.484,148.764 L95.264,148.764 L95.264,149.64 L81.484,149.64 L81.484,148.764 Z M203.892,148.764 L217.688,148.764 L217.688,149.64 L203.892,149.64 L203.892,148.764 Z M95.28,150.656 L95.312,151.532 L81.548,152.016 L81.516,151.14 L95.296,150.656 L95.28,150.656 Z M203.86,150.656 L217.64,151.14 L217.608,152.016 L203.828,151.532 L203.86,150.656 Z M95.36,152.564 L95.408,153.436 L81.656,154.392 L81.592,153.516 L95.36,152.564 Z M203.78,152.564 L217.532,153.516 L217.468,154.392 L203.72,153.436 L203.78,152.564 Z M95.5,154.452 L95.592,155.328 L81.892,156.764 L81.796,155.892 L95.5,154.452 Z M203.624,154.452 L217.328,155.892 L217.236,156.764 L203.532,155.328 L203.624,154.452 Z M95.72,156.344 L95.844,157.204 L82.188,159.108 L82.064,158.248 L95.72,156.344 Z M203.408,156.344 L217.064,158.248 L216.936,159.108 L203.28,157.204 L203.408,156.344 Z M96,158.22 L96.156,159.08 L82.58,161.468 L82.436,160.608 L96.016,158.22 L96,158.22 Z M203.124,158.22 L216.704,160.608 L216.548,161.468 L202.968,159.08 L203.108,158.22 L203.124,158.22 Z M96.36,160.08 L96.532,160.936 L83.048,163.812 L82.876,162.952 L96.36,160.08 Z M202.78,160.08 L216.264,162.952 L216.08,163.812 L202.592,160.936 L202.764,160.08 L202.78,160.08 Z M96.764,161.92 L96.968,162.78 L83.592,166.124 L83.376,165.264 L96.764,161.92 Z M202.376,161.92 L215.752,165.264 L215.548,166.124 L202.172,162.78 L202.376,161.92 Z M97.236,163.764 L97.484,164.608 L84.236,168.408 L84,167.564 L97.248,163.764 L97.236,163.764 Z M201.892,163.764 L215.14,167.564 L214.908,168.408 L201.656,164.608 L201.892,163.764 Z M97.78,165.58 L98.048,166.408 L84.936,170.672 L84.672,169.828 L97.78,165.564 L97.78,165.58 Z M201.344,165.58 L214.452,169.844 L214.188,170.688 L201.08,166.42 L201.344,165.592 L201.344,165.58 Z M98.376,167.376 L98.672,168.204 L85.72,172.92 L85.42,172.108 L98.376,167.392 L98.376,167.376 Z M200.752,167.376 L213.704,172.092 L213.408,172.908 L200.452,168.188 L200.752,167.36 L200.752,167.376 Z M99.048,169.14 L99.376,169.952 L86.592,175.124 L86.264,174.312 L99.048,169.14 Z M200.08,169.14 L212.86,174.312 L212.532,175.124 L199.752,169.952 L200.08,169.14 Z M99.764,170.908 L100.108,171.704 L87.516,177.312 L87.156,176.516 L99.752,170.908 L99.764,170.908 Z M199.344,170.908 L211.936,176.516 L211.58,177.312 L198.984,171.704 L199.328,170.908 L199.344,170.908 Z M100.548,172.624 L100.92,173.408 L88.532,179.452 L88.156,178.656 L100.548,172.608 L100.548,172.624 Z M198.564,172.624 L210.952,178.672 L210.564,179.452 L198.172,173.408 L198.564,172.624 Z M101.408,174.328 L101.812,175.108 L89.64,181.58 L89.236,180.796 L101.408,174.328 Z M197.72,174.328 L209.892,180.796 L209.484,181.58 L197.312,175.108 L197.72,174.328 Z M102.296,175.984 L102.736,176.752 L90.796,183.64 L90.36,182.876 L102.296,175.984 Z M196.796,175.984 L208.736,182.876 L208.296,183.64 L196.36,176.752 L196.796,175.984 Z M103.248,177.608 L103.72,178.36 L92.032,185.672 L91.564,184.92 L103.248,177.608 Z M195.828,177.608 L207.516,184.92 L207.064,185.672 L195.376,178.36 L195.844,177.608 L195.828,177.608 Z M104.264,179.22 L104.752,179.936 L93.328,187.64 L92.844,186.908 L104.264,179.204 L104.264,179.22 Z M194.796,179.22 L206.236,186.92 L205.752,187.656 L194.312,179.952 L194.796,179.236 L194.796,179.22 Z M105.344,180.78 L105.86,181.484 L94.704,189.592 L94.188,188.876 L105.344,180.78 Z M193.736,180.78 L204.892,188.876 L204.376,189.592 L193.22,181.484 L193.736,180.78 Z M106.468,182.296 L107,182.984 L96.14,191.468 L95.592,190.78 L106.468,182.296 Z M192.592,182.296 L203.468,190.78 L202.92,191.468 L192.064,182.984 L192.592,182.296 Z M107.64,183.78 L108.204,184.452 L97.64,193.312 L97.08,192.64 L107.64,183.78 Z M191.408,183.78 L201.968,192.64 L201.408,193.312 L190.844,184.452 L191.408,183.78 Z M108.876,185.22 L109.468,185.86 L99.22,195.092 L98.64,194.436 L108.876,185.204 L108.876,185.22 Z M190.188,185.22 L200.42,194.452 L199.844,195.108 L189.592,185.876 L190.188,185.236 L190.188,185.22 Z M110.156,186.608 L110.764,187.236 L100.844,196.812 L100.236,196.188 L110.156,186.608 Z M188.908,186.608 L198.828,196.188 L198.22,196.812 L188.296,187.236 L188.908,186.608 Z M111.484,187.968 L112.124,188.58 L102.548,198.5 L101.92,197.892 L111.484,187.984 L111.484,187.968 Z M187.58,187.968 L197.156,197.876 L196.532,198.484 L186.952,188.564 L187.58,187.952 L187.58,187.968 Z M112.86,189.264 L113.516,189.86 L104.28,200.092 L103.64,199.516 L112.86,189.264 Z M186.188,189.264 L195.42,199.516 L194.764,200.092 L185.532,189.86 L186.188,189.264 Z M114.28,190.516 L114.952,191.08 L106.092,201.64 L105.42,201.08 L114.28,190.516 Z M184.764,190.516 L193.624,201.08 L192.952,201.64 L184.092,191.08 L184.764,190.516 Z M115.752,191.72 L116.436,192.264 L107.952,203.124 L107.264,202.592 L115.752,191.736 L115.752,191.72 Z M183.312,191.72 L191.796,202.58 L191.108,203.108 L182.624,192.248 L183.312,191.704 L183.312,191.72 Z M117.248,192.876 L117.968,193.392 L109.86,204.548 L109.14,204.032 L117.236,192.876 L117.248,192.876 Z M181.812,192.876 L189.92,204.032 L189.22,204.548 L181.108,193.392 L181.812,192.876 Z"/>
</svg>
