<svg width="300" height="300" viewBox="0 0 300 300">
  <g fill-rule="evenodd">
    <path d="M298.828,57.952 L178.296,57.952 C176.764,50.58 171.86,44.484 165.296,41.204 L205.78,8.688 L199.812,1.172 L153.108,38.672 L147.188,38.672 L110.688,2.048 L103.892,8.844 L135.592,40.656 C128.5,43.764 123.236,50.156 121.656,57.876 L1.172,57.876 L1.172,260.248 L54.908,260.248 L30.876,298.812 L60.704,298.812 L99.08,260.248 L200.736,260.248 L239.108,298.812 L268.936,298.812 L244.908,260.248 L298.828,260.248 L298.828,57.952 Z M145.188,48.28 L154.796,48.28 C161.064,48.28 166.392,52.328 168.392,57.892 L131.656,57.892 C133.592,52.328 138.92,48.28 145.188,48.28 Z M56.78,289.22 L48.22,289.22 L66.204,260.328 L85.548,260.328 L56.78,289.22 Z M251.78,289.22 L243.22,289.22 L214.392,260.328 L233.736,260.328 L251.78,289.22 Z M289.22,250.656 L10.78,250.656 L10.78,67.564 L289.22,67.564 L289.22,250.656 Z"/>
    <path d="M44.36 241L207.608 241C220.86 241 231.64 230.22 231.64 216.92L231.64 101.312C231.64 88.016 220.86 77.236 207.608 77.236L44.36 77.236C31.108 77.236 20.328 88.016 20.328 101.312L20.328 216.92C20.392 230.22 31.172 241 44.36 241zM30 101.312C30 93.344 36.436 86.844 44.408 86.844L207.656 86.844C215.624 86.844 222.064 93.344 222.064 101.312L222.064 216.92C222.064 224.892 215.624 231.392 207.656 231.392L44.36 231.392C36.392 231.392 29.952 224.892 29.952 216.92L29.952 101.312 30 101.312zM260.452 125.392C271.064 125.392 279.672 116.72 279.672 106.108 279.672 95.5 271.064 86.828 260.452 86.828 249.844 86.828 241.236 95.5 241.236 106.108 241.236 116.72 249.844 125.392 260.452 125.392zM260.452 96.436C265.736 96.436 270.064 100.78 270.064 106.048 270.064 111.376 265.78 115.656 260.452 115.656 255.172 115.656 250.844 111.312 250.844 106.048 250.844 100.78 255.124 96.436 260.452 96.436zM260.452 173.564C271.064 173.564 279.672 164.892 279.672 154.28 279.672 143.672 271.064 135 260.452 135 249.844 135 241.236 143.672 241.236 154.28 241.236 164.936 249.844 173.564 260.452 173.564zM260.452 144.672C265.736 144.672 270.064 149.016 270.064 154.28 270.064 159.608 265.78 163.892 260.452 163.892 255.172 163.892 250.844 159.548 250.844 154.28 250.844 149 255.124 144.672 260.452 144.672z"/>
    <polygon points="241.236 192.828 250.844 192.828 250.844 183.22 241.236 183.22"/>
    <polygon points="255.64 192.828 265.248 192.828 265.248 183.22 255.64 183.22"/>
    <polygon points="270 192.828 279.608 192.828 279.608 183.22 270 183.22"/>
    <polygon points="241.236 212.044 250.844 212.044 250.844 202.436 241.236 202.436"/>
    <polygon points="255.64 212.044 265.248 212.044 265.248 202.436 255.64 202.436"/>
    <polygon points="270 212.044 279.608 212.044 279.608 202.436 270 202.436"/>
    <polygon points="241.236 231.328 250.844 231.328 250.844 221.72 241.236 221.72"/>
    <polygon points="255.64 231.328 265.248 231.328 265.248 221.72 255.64 221.72"/>
    <polygon points="270 231.328 279.608 231.328 279.608 221.72 270 221.72"/>
  </g>
</svg>
