<?xml version="1.0" encoding="utf-8"?>
<!-- Svg Vector Icons : http://www.onlinewebfonts.com/icon -->
<!DOCTYPE svg PUBLIC "-//W3C//DTD SVG 1.1//EN" "http://www.w3.org/Graphics/SVG/1.1/DTD/svg11.dtd">
<svg version="1.1" xmlns="http://www.w3.org/2000/svg" xmlns:xlink="http://www.w3.org/1999/xlink" x="0px" y="0px" viewBox="0 0 1000 1000" enable-background="new 0 0 1000 1000" xml:space="preserve">
<metadata> Svg Vector Icons : http://www.onlinewebfonts.com/icon </metadata>
<g><g transform="translate(0.000000,511.000000) scale(0.100000,-0.100000)"><path d="M2232.4,4939.2c-586-142.9-1040.9-738.4-1043.3-1367.3c0-412.1,121.5-690.8,431.1-1000.4c243-240.6,428.8-347.8,895.6-507.4c407.3-140.5,1584-562.1,1869.9-671.7c307.3-116.7,457.3-221.5,535.9-376.3c69.1-142.9,76.2-254.9,19.1-452.6l-40.5-142.9l69.1-54.8c107.2-85.8,657.4-393,678.9-378.7c40.5,26.2,145.3,335.8,181,543.1c116.7,669.4-202.5,1250.5-855.1,1562.6c-192.9,92.9-909.9,357.3-1941.3,719.4c-593.1,207.2-695.5,257.3-836.1,416.9c-171.5,195.3-181,416.8-28.6,657.4c102.4,162,235.8,219.1,485.9,204.8c171.5-11.9,278.7-42.9,907.5-266.8c1715-612.2,2141.4-786.1,2527.3-1038.6c402.6-264.4,719.4-645.5,831.3-1000.4c88.1-276.3,200.1-1100.5,395.4-2894.1c73.8-676.5,285.8-2784.6,285.8-2839.3c0-23.8-85.7-31-347.8-31h-347.8l-69.1-69.1c-66.7-69.1-69.1-76.2-69.1-321.6c0-228.7,4.8-254.9,57.2-316.8l57.1-66.7h1455.4h1453l54.8,54.8c50,50,54.8,73.9,54.8,328.7c0,271.6,0,276.3-66.7,333.5l-66.7,57.2h-643.1c-352.5,0-640.8,9.5-640.8,21.5c0,9.5-59.6,614.5-131,1338.7c-226.3,2248.6-428.8,3951.7-524,4404.3c-140.5,657.4-519.3,1207.7-1136.2,1650.7c-309.7,223.9-883.7,500.2-1543.5,743.2c-1043.3,388.3-2012.8,721.7-2196.2,759.9C2730.2,4984.4,2422.9,4984.4,2232.4,4939.2z"/><path d="M2018,568.2c-838.5-85.8-1436.4-445.4-1715-1031.4C245.8-582.3,179.1-749,157.6-834.7c-45.3-176.3-73.8-748-47.6-986.2l14.3-154.8L272-1820.9c252.5,271.6,524,438.3,890.9,547.9c176.3,52.4,257.3,64.3,507.4,64.3c354.9,2.4,533.6-38.1,845.6-185.8c247.7-116.7,324-171.5,531.2-376.3c614.6-602.7,752.7-1560.2,335.9-2298.6l-73.8-131l581.2,14.3c1219.6,31,1977.1,212,2436.8,583.6c288.2,231.1,416.9,471.6,435.9,821.8c16.7,297.7-52.4,574.1-233.4,936.1c-173.9,352.5-371.6,614.6-705.1,940.9C4785.8,106.1,3256.6,699.2,2018,568.2z"/><path d="M1491.6-1668.4c-350.2-54.8-597.9-178.7-848-431.2c-145.3-140.5-202.5-221.5-278.7-381.1c-119.1-250.1-152.5-397.8-152.5-659.8c2.4-381.1,135.8-721.7,393-998.1c181-190.6,359.7-309.7,602.7-393C2280-4900.8,3359-3964.7,3137.5-2857.1c-92.9,459.7-383.5,845.6-788.4,1043.3C2096.6-1687.5,1744-1627.9,1491.6-1668.4z"/></g></g>
</svg>