<?xml version="1.0" encoding="utf-8"?>
<!-- Svg Vector Icons : http://www.onlinewebfonts.com/icon -->
<!DOCTYPE svg PUBLIC "-//W3C//DTD SVG 1.1//EN" "http://www.w3.org/Graphics/SVG/1.1/DTD/svg11.dtd">
<svg version="1.1" xmlns="http://www.w3.org/2000/svg" xmlns:xlink="http://www.w3.org/1999/xlink" x="0px" y="0px" viewBox="0 0 1000 1000" enable-background="new 0 0 1000 1000" xml:space="preserve">
<metadata> Svg Vector Icons : http://www.onlinewebfonts.com/icon </metadata>
<g><path d="M500,63.6v229.7L385.2,178.5L500,63.6z M79,10l911,911L921.1,990L808.8,877.7c-62.9,49.3-129.3,82.5-199,99.5V864.9c42.5-11.9,83.4-33.2,122.5-63.8L500,568.8v367.5L226.9,663.2H10V336.6h257.7L10,78.8L79,10z M880.2,500c0-86.8-25.1-163.3-75.3-229.7C754.8,204,689.7,158.9,609.7,135.1V22.8c110.6,23.8,201.6,80.4,273.1,169.7C954.3,281.8,990,384.3,990,499.9c0,81.7-18.7,157.4-56.1,227.1l-81.7-84.2C870.9,596.9,880.3,549.3,880.2,500L880.2,500z M745,500c0,15.3-0.9,26.4-2.6,33.2L609.7,400.4V280.5C699.9,324.7,745,397.9,745,500L745,500z"/></g>
</svg>