<svg width="300" height="300" viewBox="0 0 300 300">
  <g fill-rule="evenodd" transform="translate(0 30)">
    <path d="M146.439474 240.742105C144.651316 240.047368 142.847368 239.372368 141.071053 238.630263 128.427632 233.325 121.413158 219.311842 124.421053 205.385526 127.318421 192.094737 139.176316 182.411842 152.080263 182.873684 165.852632 183.367105 176.830263 193.543421 179.021053 207.836842 181.085526 221.159211 173.005263 234.698684 160.314474 239.202632 159.035526 239.664474 157.788158 240.232895 156.536842 240.742105L146.439474 240.742105zM300 83.5894737C298.042105 87.2565789 296.731579 91.0342105 294.355263 93.9039474 289.961842 99.1776316 284.936842 103.910526 280.172368 108.860526 273.264474 116.032895 268.575 115.646053 263.009211 107.475 246.678947 83.4947368 225.217105 65.8421053 198.031579 55.4802632 140.672368 33.5368421 75.9710526 54.6 40.5078947 106.626316 39.6118421 108.059211 38.6407895 109.417105 37.5631579 110.711842 34.1684211 114.505263 29.2342105 115.073684 25.6263158 111.560526 19.3065789 105.406579 13.1368421 99.0552632 7.27894737 92.4552632 3.05131579 87.5842105 2.82236842 80.4118421 6.69078947 75.2605263 35.6052632 36.1421053 73.4289474 10.1921053 121.721053 2.62105263 193.452632-8.62105263 250.843421 17.2223684 295.144737 73.8276316 297.209211 76.4486842 298.211842 79.9184211 300 83.5894737z"/>
    <path d="M241.823684,144.296053 C239.972368,147.734211 238.661842,151.496053 236.257895,154.334211 C231.446053,159.990789 226.065789,165.157895 220.882895,170.478947 C215.534211,175.965789 210.382895,175.689474 205.756579,169.519737 C195.840789,156.228947 183.213158,146.778947 166.946053,143.123684 C140.238158,137.123684 118.065789,145.342105 100.164474,165.757895 C98.6842105,167.439474 97.4802632,169.365789 95.9842105,171.031579 C92.1,175.286842 87.1815789,175.535526 83.0960526,171.465789 C77.2342105,165.619737 71.4552632,159.682895 65.8736842,153.576316 C60.7973684,147.978947 60.8605263,140.625 65.8105263,134.857895 C90.3434211,106.346053 121.318421,92.0684211 158.988158,94.3815789 C191.186842,96.3868421 217.322368,111.035526 237.844737,135.738158 C239.617105,137.881579 240.296053,140.917105 241.823684,144.296053 Z"/>
  </g>
</svg>
